<?xml version="1.0" encoding="UTF-8" standalone="no"?>
<!DOCTYPE svg PUBLIC "-//W3C//DTD SVG 1.1//EN"
 "http://www.w3.org/Graphics/SVG/1.1/DTD/svg11.dtd">
<!-- Generated by graphviz version 2.47.0 (20210316.0004)
 -->
<!-- Title: dependencies Pages: 1 -->
<svg width="504pt" height="284pt"
 viewBox="0.00 0.00 504.00 284.00" xmlns="http://www.w3.org/2000/svg" xmlns:xlink="http://www.w3.org/1999/xlink">
<g id="graph0" class="graph" transform="scale(1 1) rotate(0) translate(4 280)">
<title>dependencies</title>
<polygon fill="white" stroke="transparent" points="-4,4 -4,-280 500,-280 500,4 -4,4"/>
<text text-anchor="start" x="227.01" y="-42.4" font-family="Times-12" font-weight="bold" font-size="14.00">Legend</text>
<polygon fill="#ffffb3" stroke="transparent" points="14,-10 14,-30 34,-30 34,-10 14,-10"/>
<text text-anchor="start" x="37.63" y="-15.4" font-family="Times-12" font-size="14.00"> &#160;Declarations</text>
<polygon fill="#8dd3c7" stroke="transparent" points="127,-10 127,-30 147,-30 147,-10 127,-10"/>
<text text-anchor="start" x="150.73" y="-15.4" font-family="Times-12" font-size="14.00"> &#160;Module</text>
<polygon fill="#80b1d3" stroke="transparent" points="213,-10 213,-30 233,-30 233,-10 213,-10"/>
<text text-anchor="start" x="236.78" y="-15.4" font-family="Times-12" font-size="14.00"> &#160;Bootstrap</text>
<polygon fill="#fdb462" stroke="transparent" points="310,-10 310,-30 330,-30 330,-10 310,-10"/>
<text text-anchor="start" x="333.67" y="-15.4" font-family="Times-12" font-size="14.00"> &#160;Providers</text>
<polygon fill="#fb8072" stroke="transparent" points="406,-10 406,-30 426,-30 426,-10 406,-10"/>
<text text-anchor="start" x="429.73" y="-15.4" font-family="Times-12" font-size="14.00"> &#160;Exports</text>
<g id="clust1" class="cluster">
<title>cluster_EinsatzModule</title>
<polygon fill="none" stroke="black" stroke-dasharray="1,5" points="38,-70 38,-268 458,-268 458,-70 38,-70"/>
</g>
<g id="clust6" class="cluster">
<title>cluster_EinsatzModule_providers</title>
<polygon fill="none" stroke="black" points="298,-78 298,-130 450,-130 450,-78 298,-78"/>
</g>
<g id="clust3" class="cluster">
<title>cluster_EinsatzModule_imports</title>
<polygon fill="none" stroke="black" points="46,-78 46,-130 290,-130 290,-78 46,-78"/>
</g>
<g id="clust4" class="cluster">
<title>cluster_EinsatzModule_exports</title>
<polygon fill="none" stroke="black" points="167,-208 167,-260 285,-260 285,-208 167,-208"/>
</g>
<!-- CommonModule -->
<g id="node1" class="node">
<title>CommonModule</title>
<polygon fill="#8dd3c7" stroke="black" points="281.67,-122 278.67,-126 257.67,-126 254.67,-122 170.33,-122 170.33,-86 281.67,-86 281.67,-122"/>
<text text-anchor="middle" x="226" y="-99.8" font-family="Times,serif" font-size="14.00">CommonModule</text>
</g>
<!-- EinsatzModule -->
<g id="node3" class="node">
<title>EinsatzModule</title>
<polygon fill="#8dd3c7" stroke="black" points="276.26,-187 273.26,-191 252.26,-191 249.26,-187 175.74,-187 175.74,-151 276.26,-151 276.26,-187"/>
<text text-anchor="middle" x="226" y="-164.8" font-family="Times,serif" font-size="14.00">EinsatzModule</text>
</g>
<!-- CommonModule&#45;&gt;EinsatzModule -->
<g id="edge1" class="edge">
<title>CommonModule&#45;&gt;EinsatzModule</title>
<path fill="none" stroke="black" d="M226,-122.11C226,-122.11 226,-140.99 226,-140.99"/>
<polygon fill="black" stroke="black" points="222.5,-140.99 226,-150.99 229.5,-140.99 222.5,-140.99"/>
</g>
<!-- PrismaModule -->
<g id="node2" class="node">
<title>PrismaModule</title>
<polygon fill="#8dd3c7" stroke="black" points="152.43,-122 149.43,-126 128.43,-126 125.43,-122 53.57,-122 53.57,-86 152.43,-86 152.43,-122"/>
<text text-anchor="middle" x="103" y="-99.8" font-family="Times,serif" font-size="14.00">PrismaModule</text>
</g>
<!-- PrismaModule&#45;&gt;EinsatzModule -->
<g id="edge2" class="edge">
<title>PrismaModule&#45;&gt;EinsatzModule</title>
<path fill="none" stroke="black" d="M103,-122.11C103,-141.34 103,-169 103,-169 103,-169 165.62,-169 165.62,-169"/>
<polygon fill="black" stroke="black" points="165.62,-172.5 175.62,-169 165.62,-165.5 165.62,-172.5"/>
</g>
<!-- EinsatzService  -->
<g id="node4" class="node">
<title>EinsatzService </title>
<polygon fill="#fb8072" stroke="black" points="277.19,-252 174.81,-252 174.81,-216 277.19,-216 277.19,-252"/>
<text text-anchor="middle" x="226" y="-229.8" font-family="Times,serif" font-size="14.00">EinsatzService </text>
</g>
<!-- EinsatzModule&#45;&gt;EinsatzService  -->
<g id="edge3" class="edge">
<title>EinsatzModule&#45;&gt;EinsatzService </title>
<path fill="none" stroke="black" stroke-dasharray="5,2" d="M226,-187.11C226,-187.11 226,-205.99 226,-205.99"/>
<polygon fill="black" stroke="black" points="222.5,-205.99 226,-215.99 229.5,-205.99 222.5,-205.99"/>
</g>
<!-- EinsatzService -->
<g id="node5" class="node">
<title>EinsatzService</title>
<ellipse fill="#fdb462" stroke="black" cx="374" cy="-104" rx="68.33" ry="18"/>
<text text-anchor="middle" x="374" y="-99.8" font-family="Times,serif" font-size="14.00">EinsatzService</text>
</g>
<!-- EinsatzService&#45;&gt;EinsatzModule -->
<g id="edge4" class="edge">
<title>EinsatzService&#45;&gt;EinsatzModule</title>
<path fill="none" stroke="black" d="M374,-122.11C374,-141.34 374,-169 374,-169 374,-169 286.52,-169 286.52,-169"/>
<polygon fill="black" stroke="black" points="286.52,-165.5 276.52,-169 286.52,-172.5 286.52,-165.5"/>
</g>
</g>
</svg>
