<?xml version="1.0" encoding="UTF-8" standalone="no"?>
<!DOCTYPE svg PUBLIC "-//W3C//DTD SVG 1.1//EN"
 "http://www.w3.org/Graphics/SVG/1.1/DTD/svg11.dtd">
<!-- Generated by graphviz version 2.47.0 (20210316.0004)
 -->
<!-- Title: dependencies Pages: 1 -->
<svg width="530pt" height="284pt"
 viewBox="0.00 0.00 530.00 284.00" xmlns="http://www.w3.org/2000/svg" xmlns:xlink="http://www.w3.org/1999/xlink">
<g id="graph0" class="graph" transform="scale(1 1) rotate(0) translate(4 280)">
<title>dependencies</title>
<polygon fill="white" stroke="transparent" points="-4,4 -4,-280 526,-280 526,4 -4,4"/>
<text text-anchor="start" x="240.01" y="-42.4" font-family="Times-12" font-weight="bold" font-size="14.00">Legend</text>
<polygon fill="#ffffb3" stroke="transparent" points="27,-10 27,-30 47,-30 47,-10 27,-10"/>
<text text-anchor="start" x="50.63" y="-15.4" font-family="Times-12" font-size="14.00"> &#160;Declarations</text>
<polygon fill="#8dd3c7" stroke="transparent" points="140,-10 140,-30 160,-30 160,-10 140,-10"/>
<text text-anchor="start" x="163.73" y="-15.4" font-family="Times-12" font-size="14.00"> &#160;Module</text>
<polygon fill="#80b1d3" stroke="transparent" points="226,-10 226,-30 246,-30 246,-10 226,-10"/>
<text text-anchor="start" x="249.78" y="-15.4" font-family="Times-12" font-size="14.00"> &#160;Bootstrap</text>
<polygon fill="#fdb462" stroke="transparent" points="323,-10 323,-30 343,-30 343,-10 323,-10"/>
<text text-anchor="start" x="346.67" y="-15.4" font-family="Times-12" font-size="14.00"> &#160;Providers</text>
<polygon fill="#fb8072" stroke="transparent" points="419,-10 419,-30 439,-30 439,-10 419,-10"/>
<text text-anchor="start" x="442.73" y="-15.4" font-family="Times-12" font-size="14.00"> &#160;Exports</text>
<g id="clust1" class="cluster">
<title>cluster_EtbModule</title>
<polygon fill="none" stroke="black" stroke-dasharray="1,5" points="8,-70 8,-268 514,-268 514,-70 8,-70"/>
</g>
<g id="clust4" class="cluster">
<title>cluster_EtbModule_exports</title>
<polygon fill="none" stroke="black" points="202,-208 202,-260 298,-260 298,-208 202,-208"/>
</g>
<g id="clust6" class="cluster">
<title>cluster_EtbModule_providers</title>
<polygon fill="none" stroke="black" points="384,-78 384,-130 506,-130 506,-78 384,-78"/>
</g>
<g id="clust3" class="cluster">
<title>cluster_EtbModule_imports</title>
<polygon fill="none" stroke="black" points="16,-78 16,-130 376,-130 376,-78 16,-78"/>
</g>
<!-- CommonModule -->
<g id="node1" class="node">
<title>CommonModule</title>
<polygon fill="#8dd3c7" stroke="black" points="367.67,-122 364.67,-126 343.67,-126 340.67,-122 256.33,-122 256.33,-86 367.67,-86 367.67,-122"/>
<text text-anchor="middle" x="312" y="-99.8" font-family="Times,serif" font-size="14.00">CommonModule</text>
</g>
<!-- EtbModule -->
<g id="node4" class="node">
<title>EtbModule</title>
<polygon fill="#8dd3c7" stroke="black" points="289.49,-187 286.49,-191 265.49,-191 262.49,-187 210.51,-187 210.51,-151 289.49,-151 289.49,-187"/>
<text text-anchor="middle" x="250" y="-164.8" font-family="Times,serif" font-size="14.00">EtbModule</text>
</g>
<!-- CommonModule&#45;&gt;EtbModule -->
<g id="edge1" class="edge">
<title>CommonModule&#45;&gt;EtbModule</title>
<path fill="none" stroke="black" d="M272.83,-122.11C272.83,-122.11 272.83,-140.99 272.83,-140.99"/>
<polygon fill="black" stroke="black" points="269.33,-140.99 272.83,-150.99 276.33,-140.99 269.33,-140.99"/>
</g>
<!-- ConfigModule -->
<g id="node2" class="node">
<title>ConfigModule</title>
<polygon fill="#8dd3c7" stroke="black" points="238.44,-122 235.44,-126 214.44,-126 211.44,-122 139.56,-122 139.56,-86 238.44,-86 238.44,-122"/>
<text text-anchor="middle" x="189" y="-99.8" font-family="Times,serif" font-size="14.00">ConfigModule</text>
</g>
<!-- ConfigModule&#45;&gt;EtbModule -->
<g id="edge2" class="edge">
<title>ConfigModule&#45;&gt;EtbModule</title>
<path fill="none" stroke="black" d="M224.36,-122.11C224.36,-122.11 224.36,-140.99 224.36,-140.99"/>
<polygon fill="black" stroke="black" points="220.86,-140.99 224.36,-150.99 227.86,-140.99 220.86,-140.99"/>
</g>
<!-- PrismaModule -->
<g id="node3" class="node">
<title>PrismaModule</title>
<polygon fill="#8dd3c7" stroke="black" points="122.43,-122 119.43,-126 98.43,-126 95.43,-122 23.57,-122 23.57,-86 122.43,-86 122.43,-122"/>
<text text-anchor="middle" x="73" y="-99.8" font-family="Times,serif" font-size="14.00">PrismaModule</text>
</g>
<!-- PrismaModule&#45;&gt;EtbModule -->
<g id="edge3" class="edge">
<title>PrismaModule&#45;&gt;EtbModule</title>
<path fill="none" stroke="black" d="M73,-122.11C73,-141.34 73,-169 73,-169 73,-169 200.28,-169 200.28,-169"/>
<polygon fill="black" stroke="black" points="200.28,-172.5 210.28,-169 200.28,-165.5 200.28,-172.5"/>
</g>
<!-- EtbService  -->
<g id="node5" class="node">
<title>EtbService </title>
<polygon fill="#fb8072" stroke="black" points="290.42,-252 209.58,-252 209.58,-216 290.42,-216 290.42,-252"/>
<text text-anchor="middle" x="250" y="-229.8" font-family="Times,serif" font-size="14.00">EtbService </text>
</g>
<!-- EtbModule&#45;&gt;EtbService  -->
<g id="edge4" class="edge">
<title>EtbModule&#45;&gt;EtbService </title>
<path fill="none" stroke="black" stroke-dasharray="5,2" d="M250,-187.11C250,-187.11 250,-205.99 250,-205.99"/>
<polygon fill="black" stroke="black" points="246.5,-205.99 250,-215.99 253.5,-205.99 246.5,-205.99"/>
</g>
<!-- EtbService -->
<g id="node6" class="node">
<title>EtbService</title>
<ellipse fill="#fdb462" stroke="black" cx="445" cy="-104" rx="53.31" ry="18"/>
<text text-anchor="middle" x="445" y="-99.8" font-family="Times,serif" font-size="14.00">EtbService</text>
</g>
<!-- EtbService&#45;&gt;EtbModule -->
<g id="edge5" class="edge">
<title>EtbService&#45;&gt;EtbModule</title>
<path fill="none" stroke="black" d="M445,-122.11C445,-141.34 445,-169 445,-169 445,-169 299.93,-169 299.93,-169"/>
<polygon fill="black" stroke="black" points="299.93,-165.5 289.93,-169 299.93,-172.5 299.93,-165.5"/>
</g>
</g>
</svg>
