<?xml version="1.0" encoding="UTF-8" standalone="no"?>
<!DOCTYPE svg PUBLIC "-//W3C//DTD SVG 1.1//EN"
 "http://www.w3.org/Graphics/SVG/1.1/DTD/svg11.dtd">
<!-- Generated by graphviz version 2.47.0 (20210316.0004)
 -->
<!-- Title: dependencies Pages: 1 -->
<svg width="504pt" height="284pt"
 viewBox="0.00 0.00 504.00 284.00" xmlns="http://www.w3.org/2000/svg" xmlns:xlink="http://www.w3.org/1999/xlink">
<g id="graph0" class="graph" transform="scale(1 1) rotate(0) translate(4 280)">
<title>dependencies</title>
<polygon fill="white" stroke="transparent" points="-4,4 -4,-280 500,-280 500,4 -4,4"/>
<text text-anchor="start" x="227.01" y="-42.4" font-family="Times-12" font-weight="bold" font-size="14.00">Legend</text>
<polygon fill="#ffffb3" stroke="transparent" points="14,-10 14,-30 34,-30 34,-10 14,-10"/>
<text text-anchor="start" x="37.63" y="-15.4" font-family="Times-12" font-size="14.00"> &#160;Declarations</text>
<polygon fill="#8dd3c7" stroke="transparent" points="127,-10 127,-30 147,-30 147,-10 127,-10"/>
<text text-anchor="start" x="150.73" y="-15.4" font-family="Times-12" font-size="14.00"> &#160;Module</text>
<polygon fill="#80b1d3" stroke="transparent" points="213,-10 213,-30 233,-30 233,-10 213,-10"/>
<text text-anchor="start" x="236.78" y="-15.4" font-family="Times-12" font-size="14.00"> &#160;Bootstrap</text>
<polygon fill="#fdb462" stroke="transparent" points="310,-10 310,-30 330,-30 330,-10 310,-10"/>
<text text-anchor="start" x="333.67" y="-15.4" font-family="Times-12" font-size="14.00"> &#160;Providers</text>
<polygon fill="#fb8072" stroke="transparent" points="406,-10 406,-30 426,-30 426,-10 406,-10"/>
<text text-anchor="start" x="429.73" y="-15.4" font-family="Times-12" font-size="14.00"> &#160;Exports</text>
<g id="clust1" class="cluster">
<title>cluster_HealthModule</title>
<polygon fill="none" stroke="black" stroke-dasharray="1,5" points="83,-70 83,-268 413,-268 413,-70 83,-70"/>
</g>
<g id="clust6" class="cluster">
<title>cluster_HealthModule_providers</title>
<polygon fill="none" stroke="black" points="193,-78 193,-130 405,-130 405,-78 193,-78"/>
</g>
<g id="clust3" class="cluster">
<title>cluster_HealthModule_imports</title>
<polygon fill="none" stroke="black" points="91,-78 91,-130 185,-130 185,-78 91,-78"/>
</g>
<g id="clust4" class="cluster">
<title>cluster_HealthModule_exports</title>
<polygon fill="none" stroke="black" points="154,-208 154,-260 316,-260 316,-208 154,-208"/>
</g>
<!-- EtbModule -->
<g id="node1" class="node">
<title>EtbModule</title>
<polygon fill="#8dd3c7" stroke="black" points="177.49,-122 174.49,-126 153.49,-126 150.49,-122 98.51,-122 98.51,-86 177.49,-86 177.49,-122"/>
<text text-anchor="middle" x="138" y="-99.8" font-family="Times,serif" font-size="14.00">EtbModule</text>
</g>
<!-- HealthModule -->
<g id="node2" class="node">
<title>HealthModule</title>
<polygon fill="#8dd3c7" stroke="black" points="283.37,-187 280.37,-191 259.37,-191 256.37,-187 186.63,-187 186.63,-151 283.37,-151 283.37,-187"/>
<text text-anchor="middle" x="235" y="-164.8" font-family="Times,serif" font-size="14.00">HealthModule</text>
</g>
<!-- EtbModule&#45;&gt;HealthModule -->
<g id="edge1" class="edge">
<title>EtbModule&#45;&gt;HealthModule</title>
<path fill="none" stroke="black" d="M177.78,-104C186.69,-104 193.56,-104 193.56,-104 193.56,-104 193.56,-140.89 193.56,-140.89"/>
<polygon fill="black" stroke="black" points="190.06,-140.89 193.56,-150.89 197.06,-140.89 190.06,-140.89"/>
</g>
<!-- PrismaHealthIndicator  -->
<g id="node3" class="node">
<title>PrismaHealthIndicator </title>
<polygon fill="#fb8072" stroke="black" points="308.23,-252 161.77,-252 161.77,-216 308.23,-216 308.23,-252"/>
<text text-anchor="middle" x="235" y="-229.8" font-family="Times,serif" font-size="14.00">PrismaHealthIndicator </text>
</g>
<!-- HealthModule&#45;&gt;PrismaHealthIndicator  -->
<g id="edge2" class="edge">
<title>HealthModule&#45;&gt;PrismaHealthIndicator </title>
<path fill="none" stroke="black" stroke-dasharray="5,2" d="M235,-187.11C235,-187.11 235,-205.99 235,-205.99"/>
<polygon fill="black" stroke="black" points="231.5,-205.99 235,-215.99 238.5,-205.99 231.5,-205.99"/>
</g>
<!-- PrismaHealthIndicator -->
<g id="node4" class="node">
<title>PrismaHealthIndicator</title>
<ellipse fill="#fdb462" stroke="black" cx="299" cy="-104" rx="98.41" ry="18"/>
<text text-anchor="middle" x="299" y="-99.8" font-family="Times,serif" font-size="14.00">PrismaHealthIndicator</text>
</g>
<!-- PrismaHealthIndicator&#45;&gt;HealthModule -->
<g id="edge3" class="edge">
<title>PrismaHealthIndicator&#45;&gt;HealthModule</title>
<path fill="none" stroke="black" d="M241.99,-118.75C241.99,-118.75 241.99,-140.59 241.99,-140.59"/>
<polygon fill="black" stroke="black" points="238.49,-140.59 241.99,-150.59 245.49,-140.59 238.49,-140.59"/>
</g>
</g>
</svg>
