<?xml version="1.0" encoding="UTF-8" standalone="no"?>
<!DOCTYPE svg PUBLIC "-//W3C//DTD SVG 1.1//EN"
 "http://www.w3.org/Graphics/SVG/1.1/DTD/svg11.dtd">
<!-- Generated by graphviz version 2.47.0 (20210316.0004)
 -->
<!-- Title: dependencies Pages: 1 -->
<svg width="1489pt" height="284pt"
 viewBox="0.00 0.00 1489.00 284.00" xmlns="http://www.w3.org/2000/svg" xmlns:xlink="http://www.w3.org/1999/xlink">
<g id="graph0" class="graph" transform="scale(1 1) rotate(0) translate(4 280)">
<title>dependencies</title>
<polygon fill="white" stroke="transparent" points="-4,4 -4,-280 1485,-280 1485,4 -4,4"/>
<text text-anchor="start" x="719.51" y="-42.4" font-family="Times-12" font-weight="bold" font-size="14.00">Legend</text>
<polygon fill="#ffffb3" stroke="transparent" points="506.5,-10 506.5,-30 526.5,-30 526.5,-10 506.5,-10"/>
<text text-anchor="start" x="530.13" y="-15.4" font-family="Times-12" font-size="14.00"> &#160;Declarations</text>
<polygon fill="#8dd3c7" stroke="transparent" points="619.5,-10 619.5,-30 639.5,-30 639.5,-10 619.5,-10"/>
<text text-anchor="start" x="643.23" y="-15.4" font-family="Times-12" font-size="14.00"> &#160;Module</text>
<polygon fill="#80b1d3" stroke="transparent" points="705.5,-10 705.5,-30 725.5,-30 725.5,-10 705.5,-10"/>
<text text-anchor="start" x="729.28" y="-15.4" font-family="Times-12" font-size="14.00"> &#160;Bootstrap</text>
<polygon fill="#fdb462" stroke="transparent" points="802.5,-10 802.5,-30 822.5,-30 822.5,-10 802.5,-10"/>
<text text-anchor="start" x="826.17" y="-15.4" font-family="Times-12" font-size="14.00"> &#160;Providers</text>
<polygon fill="#fb8072" stroke="transparent" points="898.5,-10 898.5,-30 918.5,-30 918.5,-10 898.5,-10"/>
<text text-anchor="start" x="922.23" y="-15.4" font-family="Times-12" font-size="14.00"> &#160;Exports</text>
<g id="clust1" class="cluster">
<title>cluster_NotificationModule</title>
<polygon fill="none" stroke="black" stroke-dasharray="1,5" points="8,-70 8,-268 1473,-268 1473,-70 8,-70"/>
</g>
<g id="clust4" class="cluster">
<title>cluster_NotificationModule_exports</title>
<polygon fill="none" stroke="black" points="493,-208 493,-260 839,-260 839,-208 493,-208"/>
</g>
<g id="clust6" class="cluster">
<title>cluster_NotificationModule_providers</title>
<polygon fill="none" stroke="black" points="254,-78 254,-130 1465,-130 1465,-78 254,-78"/>
</g>
<g id="clust3" class="cluster">
<title>cluster_NotificationModule_imports</title>
<polygon fill="none" stroke="black" points="16,-78 16,-130 246,-130 246,-78 16,-78"/>
</g>
<!-- ConfigModule -->
<g id="node1" class="node">
<title>ConfigModule</title>
<polygon fill="#8dd3c7" stroke="black" points="238.44,-122 235.44,-126 214.44,-126 211.44,-122 139.56,-122 139.56,-86 238.44,-86 238.44,-122"/>
<text text-anchor="middle" x="189" y="-99.8" font-family="Times,serif" font-size="14.00">ConfigModule</text>
</g>
<!-- NotificationModule -->
<g id="node3" class="node">
<title>NotificationModule</title>
<polygon fill="#8dd3c7" stroke="black" points="742.7,-187 739.7,-191 718.7,-191 715.7,-187 615.3,-187 615.3,-151 742.7,-151 742.7,-187"/>
<text text-anchor="middle" x="679" y="-164.8" font-family="Times,serif" font-size="14.00">NotificationModule</text>
</g>
<!-- ConfigModule&#45;&gt;NotificationModule -->
<g id="edge1" class="edge">
<title>ConfigModule&#45;&gt;NotificationModule</title>
<path fill="none" stroke="black" d="M189,-122.11C189,-141.34 189,-169 189,-169 189,-169 605.19,-169 605.19,-169"/>
<polygon fill="black" stroke="black" points="605.19,-172.5 615.19,-169 605.19,-165.5 605.19,-172.5"/>
</g>
<!-- PrismaModule -->
<g id="node2" class="node">
<title>PrismaModule</title>
<polygon fill="#8dd3c7" stroke="black" points="122.43,-122 119.43,-126 98.43,-126 95.43,-122 23.57,-122 23.57,-86 122.43,-86 122.43,-122"/>
<text text-anchor="middle" x="73" y="-99.8" font-family="Times,serif" font-size="14.00">PrismaModule</text>
</g>
<!-- PrismaModule&#45;&gt;NotificationModule -->
<g id="edge2" class="edge">
<title>PrismaModule&#45;&gt;NotificationModule</title>
<path fill="none" stroke="black" d="M73,-122.29C73,-144.21 73,-178 73,-178 73,-178 605.29,-178 605.29,-178"/>
<polygon fill="black" stroke="black" points="605.29,-181.5 615.29,-178 605.29,-174.5 605.29,-181.5"/>
</g>
<!-- NotificationService  -->
<g id="node4" class="node">
<title>NotificationService </title>
<polygon fill="#fb8072" stroke="black" points="830.63,-252 701.37,-252 701.37,-216 830.63,-216 830.63,-252"/>
<text text-anchor="middle" x="766" y="-229.8" font-family="Times,serif" font-size="14.00">NotificationService </text>
</g>
<!-- NotificationModule&#45;&gt;NotificationService  -->
<g id="edge3" class="edge">
<title>NotificationModule&#45;&gt;NotificationService </title>
<path fill="none" stroke="black" stroke-dasharray="5,2" d="M722.02,-187.11C722.02,-187.11 722.02,-205.99 722.02,-205.99"/>
<polygon fill="black" stroke="black" points="718.52,-205.99 722.02,-215.99 725.52,-205.99 718.52,-205.99"/>
</g>
<!-- NotificationTemplateService  -->
<g id="node5" class="node">
<title>NotificationTemplateService </title>
<polygon fill="#fb8072" stroke="black" points="683,-252 501,-252 501,-216 683,-216 683,-252"/>
<text text-anchor="middle" x="592" y="-229.8" font-family="Times,serif" font-size="14.00">NotificationTemplateService </text>
</g>
<!-- NotificationModule&#45;&gt;NotificationTemplateService  -->
<g id="edge4" class="edge">
<title>NotificationModule&#45;&gt;NotificationTemplateService </title>
<path fill="none" stroke="black" stroke-dasharray="5,2" d="M649.2,-187.11C649.2,-187.11 649.2,-205.99 649.2,-205.99"/>
<polygon fill="black" stroke="black" points="645.7,-205.99 649.2,-215.99 652.7,-205.99 645.7,-205.99"/>
</g>
<!-- EmailChannel -->
<g id="node6" class="node">
<title>EmailChannel</title>
<ellipse fill="#fdb462" stroke="black" cx="1391" cy="-104" rx="66.07" ry="18"/>
<text text-anchor="middle" x="1391" y="-99.8" font-family="Times,serif" font-size="14.00">EmailChannel</text>
</g>
<!-- EmailChannel&#45;&gt;NotificationModule -->
<g id="edge5" class="edge">
<title>EmailChannel&#45;&gt;NotificationModule</title>
<path fill="none" stroke="black" d="M1391,-122.29C1391,-144.21 1391,-178 1391,-178 1391,-178 752.81,-178 752.81,-178"/>
<polygon fill="black" stroke="black" points="752.81,-174.5 742.81,-178 752.81,-181.5 752.81,-174.5"/>
</g>
<!-- NotificationHealthService -->
<g id="node7" class="node">
<title>NotificationHealthService</title>
<ellipse fill="#fdb462" stroke="black" cx="1194" cy="-104" rx="112.29" ry="18"/>
<text text-anchor="middle" x="1194" y="-99.8" font-family="Times,serif" font-size="14.00">NotificationHealthService</text>
</g>
<!-- NotificationHealthService&#45;&gt;NotificationModule -->
<g id="edge6" class="edge">
<title>NotificationHealthService&#45;&gt;NotificationModule</title>
<path fill="none" stroke="black" d="M1194,-122.11C1194,-141.34 1194,-169 1194,-169 1194,-169 752.67,-169 752.67,-169"/>
<polygon fill="black" stroke="black" points="752.67,-165.5 742.67,-169 752.67,-172.5 752.67,-165.5"/>
</g>
<!-- NotificationQueue -->
<g id="node8" class="node">
<title>NotificationQueue</title>
<ellipse fill="#fdb462" stroke="black" cx="981" cy="-104" rx="82.8" ry="18"/>
<text text-anchor="middle" x="981" y="-99.8" font-family="Times,serif" font-size="14.00">NotificationQueue</text>
</g>
<!-- NotificationQueue&#45;&gt;NotificationModule -->
<g id="edge7" class="edge">
<title>NotificationQueue&#45;&gt;NotificationModule</title>
<path fill="none" stroke="black" d="M981,-122.03C981,-138.4 981,-160 981,-160 981,-160 752.68,-160 752.68,-160"/>
<polygon fill="black" stroke="black" points="752.68,-156.5 742.68,-160 752.68,-163.5 752.68,-156.5"/>
</g>
<!-- NotificationService -->
<g id="node9" class="node">
<title>NotificationService</title>
<ellipse fill="#fdb462" stroke="black" cx="793" cy="-104" rx="86.81" ry="18"/>
<text text-anchor="middle" x="793" y="-99.8" font-family="Times,serif" font-size="14.00">NotificationService</text>
</g>
<!-- NotificationService&#45;&gt;NotificationModule -->
<g id="edge8" class="edge">
<title>NotificationService&#45;&gt;NotificationModule</title>
<path fill="none" stroke="black" d="M724.47,-115.03C724.47,-115.03 724.47,-140.78 724.47,-140.78"/>
<polygon fill="black" stroke="black" points="720.97,-140.78 724.47,-150.78 727.97,-140.78 720.97,-140.78"/>
</g>
<!-- NotificationTemplateService -->
<g id="node10" class="node">
<title>NotificationTemplateService</title>
<ellipse fill="#fdb462" stroke="black" cx="565" cy="-104" rx="123.25" ry="18"/>
<text text-anchor="middle" x="565" y="-99.8" font-family="Times,serif" font-size="14.00">NotificationTemplateService</text>
</g>
<!-- NotificationTemplateService&#45;&gt;NotificationModule -->
<g id="edge9" class="edge">
<title>NotificationTemplateService&#45;&gt;NotificationModule</title>
<path fill="none" stroke="black" d="M651.76,-116.84C651.76,-116.84 651.76,-140.52 651.76,-140.52"/>
<polygon fill="black" stroke="black" points="648.26,-140.52 651.76,-150.52 655.26,-140.52 648.26,-140.52"/>
</g>
<!-- WebhookChannel -->
<g id="node11" class="node">
<title>WebhookChannel</title>
<ellipse fill="#fdb462" stroke="black" cx="343" cy="-104" rx="80.53" ry="18"/>
<text text-anchor="middle" x="343" y="-99.8" font-family="Times,serif" font-size="14.00">WebhookChannel</text>
</g>
<!-- WebhookChannel&#45;&gt;NotificationModule -->
<g id="edge10" class="edge">
<title>WebhookChannel&#45;&gt;NotificationModule</title>
<path fill="none" stroke="black" d="M343,-122.03C343,-138.4 343,-160 343,-160 343,-160 605.01,-160 605.01,-160"/>
<polygon fill="black" stroke="black" points="605.01,-163.5 615.01,-160 605.01,-156.5 605.01,-163.5"/>
</g>
</g>
</svg>
