<?xml version="1.0" encoding="UTF-8" standalone="no"?>
<!DOCTYPE svg PUBLIC "-//W3C//DTD SVG 1.1//EN"
 "http://www.w3.org/Graphics/SVG/1.1/DTD/svg11.dtd">
<!-- Generated by graphviz version 2.47.0 (20210316.0004)
 -->
<!-- Title: dependencies Pages: 1 -->
<svg width="2505pt" height="284pt"
 viewBox="0.00 0.00 2505.00 284.00" xmlns="http://www.w3.org/2000/svg" xmlns:xlink="http://www.w3.org/1999/xlink">
<g id="graph0" class="graph" transform="scale(1 1) rotate(0) translate(4 280)">
<title>dependencies</title>
<polygon fill="white" stroke="transparent" points="-4,4 -4,-280 2501,-280 2501,4 -4,4"/>
<text text-anchor="start" x="1227.51" y="-42.4" font-family="Times-12" font-weight="bold" font-size="14.00">Legend</text>
<polygon fill="#ffffb3" stroke="transparent" points="1014.5,-10 1014.5,-30 1034.5,-30 1034.5,-10 1014.5,-10"/>
<text text-anchor="start" x="1038.13" y="-15.4" font-family="Times-12" font-size="14.00"> &#160;Declarations</text>
<polygon fill="#8dd3c7" stroke="transparent" points="1127.5,-10 1127.5,-30 1147.5,-30 1147.5,-10 1127.5,-10"/>
<text text-anchor="start" x="1151.23" y="-15.4" font-family="Times-12" font-size="14.00"> &#160;Module</text>
<polygon fill="#80b1d3" stroke="transparent" points="1213.5,-10 1213.5,-30 1233.5,-30 1233.5,-10 1213.5,-10"/>
<text text-anchor="start" x="1237.28" y="-15.4" font-family="Times-12" font-size="14.00"> &#160;Bootstrap</text>
<polygon fill="#fdb462" stroke="transparent" points="1310.5,-10 1310.5,-30 1330.5,-30 1330.5,-10 1310.5,-10"/>
<text text-anchor="start" x="1334.17" y="-15.4" font-family="Times-12" font-size="14.00"> &#160;Providers</text>
<polygon fill="#fb8072" stroke="transparent" points="1406.5,-10 1406.5,-30 1426.5,-30 1426.5,-10 1406.5,-10"/>
<text text-anchor="start" x="1430.23" y="-15.4" font-family="Times-12" font-size="14.00"> &#160;Exports</text>
<g id="clust1" class="cluster">
<title>cluster_AuthModule</title>
<polygon fill="none" stroke="black" stroke-dasharray="1,5" points="8,-70 8,-268 2489,-268 2489,-70 8,-70"/>
</g>
<g id="clust3" class="cluster">
<title>cluster_AuthModule_imports</title>
<polygon fill="none" stroke="black" points="2367,-78 2367,-130 2481,-130 2481,-78 2367,-78"/>
</g>
<g id="clust6" class="cluster">
<title>cluster_AuthModule_providers</title>
<polygon fill="none" stroke="black" points="16,-78 16,-130 2359,-130 2359,-78 16,-78"/>
</g>
<g id="clust4" class="cluster">
<title>cluster_AuthModule_exports</title>
<polygon fill="none" stroke="black" points="715,-208 715,-260 1968,-260 1968,-208 715,-208"/>
</g>
<!-- ConfigModule -->
<g id="node1" class="node">
<title>ConfigModule</title>
<polygon fill="#8dd3c7" stroke="black" points="2473.44,-122 2470.44,-126 2449.44,-126 2446.44,-122 2374.56,-122 2374.56,-86 2473.44,-86 2473.44,-122"/>
<text text-anchor="middle" x="2424" y="-99.8" font-family="Times,serif" font-size="14.00">ConfigModule</text>
</g>
<!-- AuthModule -->
<g id="node2" class="node">
<title>AuthModule</title>
<polygon fill="#8dd3c7" stroke="black" points="1442.55,-187 1439.55,-191 1418.55,-191 1415.55,-187 1355.45,-187 1355.45,-151 1442.55,-151 1442.55,-187"/>
<text text-anchor="middle" x="1399" y="-164.8" font-family="Times,serif" font-size="14.00">AuthModule</text>
</g>
<!-- ConfigModule&#45;&gt;AuthModule -->
<g id="edge1" class="edge">
<title>ConfigModule&#45;&gt;AuthModule</title>
<path fill="none" stroke="black" d="M2424,-122.13C2424,-142.57 2424,-173 2424,-173 2424,-173 1452.72,-173 1452.72,-173"/>
<polygon fill="black" stroke="black" points="1452.72,-169.5 1442.72,-173 1452.72,-176.5 1452.72,-169.5"/>
</g>
<!-- AuthService  -->
<g id="node3" class="node">
<title>AuthService </title>
<polygon fill="#fb8072" stroke="black" points="1959.98,-252 1870.02,-252 1870.02,-216 1959.98,-216 1959.98,-252"/>
<text text-anchor="middle" x="1915" y="-229.8" font-family="Times,serif" font-size="14.00">AuthService </text>
</g>
<!-- AuthModule&#45;&gt;AuthService  -->
<g id="edge2" class="edge">
<title>AuthModule&#45;&gt;AuthService </title>
<path fill="none" stroke="black" stroke-dasharray="5,2" d="M1442.93,-177C1565.79,-177 1903.99,-177 1903.99,-177 1903.99,-177 1903.99,-205.96 1903.99,-205.96"/>
<polygon fill="black" stroke="black" points="1900.49,-205.96 1903.99,-215.96 1907.49,-205.96 1900.49,-205.96"/>
</g>
<!-- GeoIpService  -->
<g id="node4" class="node">
<title>GeoIpService </title>
<polygon fill="#fb8072" stroke="black" points="1852.46,-252 1755.54,-252 1755.54,-216 1852.46,-216 1852.46,-252"/>
<text text-anchor="middle" x="1804" y="-229.8" font-family="Times,serif" font-size="14.00">GeoIpService </text>
</g>
<!-- AuthModule&#45;&gt;GeoIpService  -->
<g id="edge3" class="edge">
<title>AuthModule&#45;&gt;GeoIpService </title>
<path fill="none" stroke="black" stroke-dasharray="5,2" d="M1442.73,-180C1547.45,-180 1804,-180 1804,-180 1804,-180 1804,-205.72 1804,-205.72"/>
<polygon fill="black" stroke="black" points="1800.5,-205.72 1804,-215.72 1807.5,-205.72 1800.5,-205.72"/>
</g>
<!-- LoginAttemptService  -->
<g id="node5" class="node">
<title>LoginAttemptService </title>
<polygon fill="#fb8072" stroke="black" points="1737.3,-252 1596.7,-252 1596.7,-216 1737.3,-216 1737.3,-252"/>
<text text-anchor="middle" x="1667" y="-229.8" font-family="Times,serif" font-size="14.00">LoginAttemptService </text>
</g>
<!-- AuthModule&#45;&gt;LoginAttemptService  -->
<g id="edge4" class="edge">
<title>AuthModule&#45;&gt;LoginAttemptService </title>
<path fill="none" stroke="black" stroke-dasharray="5,2" d="M1442.7,-184C1517.86,-184 1663.64,-184 1663.64,-184 1663.64,-184 1663.64,-205.95 1663.64,-205.95"/>
<polygon fill="black" stroke="black" points="1660.14,-205.95 1663.64,-215.95 1667.14,-205.95 1660.14,-205.95"/>
</g>
<!-- PermissionValidationService  -->
<g id="node6" class="node">
<title>PermissionValidationService </title>
<polygon fill="#fb8072" stroke="black" points="1578.29,-252 1395.71,-252 1395.71,-216 1578.29,-216 1578.29,-252"/>
<text text-anchor="middle" x="1487" y="-229.8" font-family="Times,serif" font-size="14.00">PermissionValidationService </text>
</g>
<!-- AuthModule&#45;&gt;PermissionValidationService  -->
<g id="edge5" class="edge">
<title>AuthModule&#45;&gt;PermissionValidationService </title>
<path fill="none" stroke="black" stroke-dasharray="5,2" d="M1419.19,-187.11C1419.19,-187.11 1419.19,-205.99 1419.19,-205.99"/>
<polygon fill="black" stroke="black" points="1415.69,-205.99 1419.19,-215.99 1422.69,-205.99 1415.69,-205.99"/>
</g>
<!-- SecurityLogService  -->
<g id="node7" class="node">
<title>SecurityLogService </title>
<polygon fill="#fb8072" stroke="black" points="1377.18,-252 1246.82,-252 1246.82,-216 1377.18,-216 1377.18,-252"/>
<text text-anchor="middle" x="1312" y="-229.8" font-family="Times,serif" font-size="14.00">SecurityLogService </text>
</g>
<!-- AuthModule&#45;&gt;SecurityLogService  -->
<g id="edge6" class="edge">
<title>AuthModule&#45;&gt;SecurityLogService </title>
<path fill="none" stroke="black" stroke-dasharray="5,2" d="M1366.28,-187.11C1366.28,-187.11 1366.28,-205.99 1366.28,-205.99"/>
<polygon fill="black" stroke="black" points="1362.78,-205.99 1366.28,-215.99 1369.78,-205.99 1362.78,-205.99"/>
</g>
<!-- SecurityMetricsService  -->
<g id="node8" class="node">
<title>SecurityMetricsService </title>
<polygon fill="#fb8072" stroke="black" points="1228.39,-252 1077.61,-252 1077.61,-216 1228.39,-216 1228.39,-252"/>
<text text-anchor="middle" x="1153" y="-229.8" font-family="Times,serif" font-size="14.00">SecurityMetricsService </text>
</g>
<!-- AuthModule&#45;&gt;SecurityMetricsService  -->
<g id="edge7" class="edge">
<title>AuthModule&#45;&gt;SecurityMetricsService </title>
<path fill="none" stroke="black" stroke-dasharray="5,2" d="M1355.32,-184C1291.22,-184 1179.22,-184 1179.22,-184 1179.22,-184 1179.22,-205.95 1179.22,-205.95"/>
<polygon fill="black" stroke="black" points="1175.72,-205.95 1179.22,-215.95 1182.72,-205.95 1175.72,-205.95"/>
</g>
<!-- SessionCleanupService  -->
<g id="node9" class="node">
<title>SessionCleanupService </title>
<polygon fill="#fb8072" stroke="black" points="1059.41,-252 908.59,-252 908.59,-216 1059.41,-216 1059.41,-252"/>
<text text-anchor="middle" x="984" y="-229.8" font-family="Times,serif" font-size="14.00">SessionCleanupService </text>
</g>
<!-- AuthModule&#45;&gt;SessionCleanupService  -->
<g id="edge8" class="edge">
<title>AuthModule&#45;&gt;SessionCleanupService </title>
<path fill="none" stroke="black" stroke-dasharray="5,2" d="M1355.37,-180C1248.82,-180 984,-180 984,-180 984,-180 984,-205.72 984,-205.72"/>
<polygon fill="black" stroke="black" points="980.5,-205.72 984,-215.72 987.5,-205.72 980.5,-205.72"/>
</g>
<!-- SuspiciousActivityService  -->
<g id="node10" class="node">
<title>SuspiciousActivityService </title>
<polygon fill="#fb8072" stroke="black" points="891.03,-252 722.97,-252 722.97,-216 891.03,-216 891.03,-252"/>
<text text-anchor="middle" x="807" y="-229.8" font-family="Times,serif" font-size="14.00">SuspiciousActivityService </text>
</g>
<!-- AuthModule&#45;&gt;SuspiciousActivityService  -->
<g id="edge9" class="edge">
<title>AuthModule&#45;&gt;SuspiciousActivityService </title>
<path fill="none" stroke="black" stroke-dasharray="5,2" d="M1355.41,-177C1222.52,-177 831.48,-177 831.48,-177 831.48,-177 831.48,-205.96 831.48,-205.96"/>
<polygon fill="black" stroke="black" points="827.98,-205.96 831.48,-215.96 834.98,-205.96 827.98,-205.96"/>
</g>
<!-- AuthService -->
<g id="node11" class="node">
<title>AuthService</title>
<ellipse fill="#fdb462" stroke="black" cx="2292" cy="-104" rx="59.11" ry="18"/>
<text text-anchor="middle" x="2292" y="-99.8" font-family="Times,serif" font-size="14.00">AuthService</text>
</g>
<!-- AuthService&#45;&gt;AuthModule -->
<g id="edge10" class="edge">
<title>AuthService&#45;&gt;AuthModule</title>
<path fill="none" stroke="black" d="M2292,-122.11C2292,-141.34 2292,-169 2292,-169 2292,-169 1452.68,-169 1452.68,-169"/>
<polygon fill="black" stroke="black" points="1452.68,-165.5 1442.68,-169 1452.68,-172.5 1452.68,-165.5"/>
</g>
<!-- GeoIpService -->
<g id="node12" class="node">
<title>GeoIpService</title>
<ellipse fill="#fdb462" stroke="black" cx="2151" cy="-104" rx="64.24" ry="18"/>
<text text-anchor="middle" x="2151" y="-99.8" font-family="Times,serif" font-size="14.00">GeoIpService</text>
</g>
<!-- GeoIpService&#45;&gt;AuthModule -->
<g id="edge11" class="edge">
<title>GeoIpService&#45;&gt;AuthModule</title>
<path fill="none" stroke="black" d="M2151,-122.27C2151,-140.56 2151,-166 2151,-166 2151,-166 1452.68,-166 1452.68,-166"/>
<polygon fill="black" stroke="black" points="1452.68,-162.5 1442.68,-166 1452.68,-169.5 1452.68,-162.5"/>
</g>
<!-- JwtStrategy -->
<g id="node13" class="node">
<title>JwtStrategy</title>
<ellipse fill="#fdb462" stroke="black" cx="2012" cy="-104" rx="56.76" ry="18"/>
<text text-anchor="middle" x="2012" y="-99.8" font-family="Times,serif" font-size="14.00">JwtStrategy</text>
</g>
<!-- JwtStrategy&#45;&gt;AuthModule -->
<g id="edge12" class="edge">
<title>JwtStrategy&#45;&gt;AuthModule</title>
<path fill="none" stroke="black" d="M2014.18,-122.03C2014.18,-139.06 2014.18,-162 2014.18,-162 2014.18,-162 1452.75,-162 1452.75,-162"/>
<polygon fill="black" stroke="black" points="1452.75,-158.5 1442.75,-162 1452.75,-165.5 1452.75,-158.5"/>
</g>
<!-- LoginAttemptService -->
<g id="node14" class="node">
<title>LoginAttemptService</title>
<ellipse fill="#fdb462" stroke="black" cx="1843" cy="-104" rx="94.92" ry="18"/>
<text text-anchor="middle" x="1843" y="-99.8" font-family="Times,serif" font-size="14.00">LoginAttemptService</text>
</g>
<!-- LoginAttemptService&#45;&gt;AuthModule -->
<g id="edge13" class="edge">
<title>LoginAttemptService&#45;&gt;AuthModule</title>
<path fill="none" stroke="black" d="M1752.03,-109.08C1752.03,-122.69 1752.03,-159 1752.03,-159 1752.03,-159 1452.64,-159 1452.64,-159"/>
<polygon fill="black" stroke="black" points="1452.64,-155.5 1442.64,-159 1452.64,-162.5 1452.64,-155.5"/>
</g>
<!-- PermissionValidationService -->
<g id="node15" class="node">
<title>PermissionValidationService</title>
<ellipse fill="#fdb462" stroke="black" cx="1607" cy="-104" rx="123.85" ry="18"/>
<text text-anchor="middle" x="1607" y="-99.8" font-family="Times,serif" font-size="14.00">PermissionValidationService</text>
</g>
<!-- PermissionValidationService&#45;&gt;AuthModule -->
<g id="edge14" class="edge">
<title>PermissionValidationService&#45;&gt;AuthModule</title>
<path fill="none" stroke="black" d="M1530.86,-118.21C1530.86,-133.3 1530.86,-155 1530.86,-155 1530.86,-155 1452.91,-155 1452.91,-155"/>
<polygon fill="black" stroke="black" points="1452.91,-151.5 1442.91,-155 1452.91,-158.5 1452.91,-151.5"/>
</g>
<!-- PrismaService -->
<g id="node16" class="node">
<title>PrismaService</title>
<ellipse fill="#fdb462" stroke="black" cx="1399" cy="-104" rx="66.63" ry="18"/>
<text text-anchor="middle" x="1399" y="-99.8" font-family="Times,serif" font-size="14.00">PrismaService</text>
</g>
<!-- PrismaService&#45;&gt;AuthModule -->
<g id="edge15" class="edge">
<title>PrismaService&#45;&gt;AuthModule</title>
<path fill="none" stroke="black" d="M1399,-122.11C1399,-122.11 1399,-140.99 1399,-140.99"/>
<polygon fill="black" stroke="black" points="1395.5,-140.99 1399,-150.99 1402.5,-140.99 1395.5,-140.99"/>
</g>
<!-- SecurityAlertService -->
<g id="node17" class="node">
<title>SecurityAlertService</title>
<ellipse fill="#fdb462" stroke="black" cx="1222" cy="-104" rx="92.03" ry="18"/>
<text text-anchor="middle" x="1222" y="-99.8" font-family="Times,serif" font-size="14.00">SecurityAlertService</text>
</g>
<!-- SecurityAlertService&#45;&gt;AuthModule -->
<g id="edge16" class="edge">
<title>SecurityAlertService&#45;&gt;AuthModule</title>
<path fill="none" stroke="black" d="M1280.34,-117.94C1280.34,-133.04 1280.34,-155 1280.34,-155 1280.34,-155 1345.15,-155 1345.15,-155"/>
<polygon fill="black" stroke="black" points="1345.15,-158.5 1355.15,-155 1345.15,-151.5 1345.15,-158.5"/>
</g>
<!-- SecurityAlertServiceV2 -->
<g id="node18" class="node">
<title>SecurityAlertServiceV2</title>
<ellipse fill="#fdb462" stroke="black" cx="1008" cy="-104" rx="103.63" ry="18"/>
<text text-anchor="middle" x="1008" y="-99.8" font-family="Times,serif" font-size="14.00">SecurityAlertServiceV2</text>
</g>
<!-- SecurityAlertServiceV2&#45;&gt;AuthModule -->
<g id="edge17" class="edge">
<title>SecurityAlertServiceV2&#45;&gt;AuthModule</title>
<path fill="none" stroke="black" d="M1094.68,-114.09C1094.68,-129.97 1094.68,-159 1094.68,-159 1094.68,-159 1345.4,-159 1345.4,-159"/>
<polygon fill="black" stroke="black" points="1345.4,-162.5 1355.4,-159 1345.4,-155.5 1345.4,-162.5"/>
</g>
<!-- SecurityLogService -->
<g id="node19" class="node">
<title>SecurityLogService</title>
<ellipse fill="#fdb462" stroke="black" cx="798" cy="-104" rx="87.96" ry="18"/>
<text text-anchor="middle" x="798" y="-99.8" font-family="Times,serif" font-size="14.00">SecurityLogService</text>
</g>
<!-- SecurityLogService&#45;&gt;AuthModule -->
<g id="edge18" class="edge">
<title>SecurityLogService&#45;&gt;AuthModule</title>
<path fill="none" stroke="black" d="M777.23,-121.72C777.23,-138.77 777.23,-162 777.23,-162 777.23,-162 1345.28,-162 1345.28,-162"/>
<polygon fill="black" stroke="black" points="1345.28,-165.5 1355.28,-162 1345.28,-158.5 1345.28,-165.5"/>
</g>
<!-- SecurityMetricsService -->
<g id="node20" class="node">
<title>SecurityMetricsService</title>
<ellipse fill="#fdb462" stroke="black" cx="591" cy="-104" rx="101.84" ry="18"/>
<text text-anchor="middle" x="591" y="-99.8" font-family="Times,serif" font-size="14.00">SecurityMetricsService</text>
</g>
<!-- SecurityMetricsService&#45;&gt;AuthModule -->
<g id="edge19" class="edge">
<title>SecurityMetricsService&#45;&gt;AuthModule</title>
<path fill="none" stroke="black" d="M591,-122.27C591,-140.56 591,-166 591,-166 591,-166 1345.27,-166 1345.27,-166"/>
<polygon fill="black" stroke="black" points="1345.27,-169.5 1355.27,-166 1345.27,-162.5 1345.27,-169.5"/>
</g>
<!-- SessionCleanupService -->
<g id="node21" class="node">
<title>SessionCleanupService</title>
<ellipse fill="#fdb462" stroke="black" cx="370" cy="-104" rx="101.86" ry="18"/>
<text text-anchor="middle" x="370" y="-99.8" font-family="Times,serif" font-size="14.00">SessionCleanupService</text>
</g>
<!-- SessionCleanupService&#45;&gt;AuthModule -->
<g id="edge20" class="edge">
<title>SessionCleanupService&#45;&gt;AuthModule</title>
<path fill="none" stroke="black" d="M370,-122.11C370,-141.34 370,-169 370,-169 370,-169 1345.44,-169 1345.44,-169"/>
<polygon fill="black" stroke="black" points="1345.44,-172.5 1355.44,-169 1345.44,-165.5 1345.44,-172.5"/>
</g>
<!-- SuspiciousActivityService -->
<g id="node22" class="node">
<title>SuspiciousActivityService</title>
<ellipse fill="#fdb462" stroke="black" cx="137" cy="-104" rx="113.48" ry="18"/>
<text text-anchor="middle" x="137" y="-99.8" font-family="Times,serif" font-size="14.00">SuspiciousActivityService</text>
</g>
<!-- SuspiciousActivityService&#45;&gt;AuthModule -->
<g id="edge21" class="edge">
<title>SuspiciousActivityService&#45;&gt;AuthModule</title>
<path fill="none" stroke="black" d="M137,-122.13C137,-142.57 137,-173 137,-173 137,-173 1345.19,-173 1345.19,-173"/>
<polygon fill="black" stroke="black" points="1345.19,-176.5 1355.19,-173 1345.19,-169.5 1345.19,-176.5"/>
</g>
</g>
</svg>
