<?xml version="1.0" encoding="UTF-8" standalone="no"?>
<!DOCTYPE svg PUBLIC "-//W3C//DTD SVG 1.1//EN"
 "http://www.w3.org/Graphics/SVG/1.1/DTD/svg11.dtd">
<!-- Generated by graphviz version 2.47.0 (20210316.0004)
 -->
<!-- Title: dependencies Pages: 1 -->
<svg width="777pt" height="284pt"
 viewBox="0.00 0.00 777.00 284.00" xmlns="http://www.w3.org/2000/svg" xmlns:xlink="http://www.w3.org/1999/xlink">
<g id="graph0" class="graph" transform="scale(1 1) rotate(0) translate(4 280)">
<title>dependencies</title>
<polygon fill="white" stroke="transparent" points="-4,4 -4,-280 773,-280 773,4 -4,4"/>
<text text-anchor="start" x="363.51" y="-42.4" font-family="Times-12" font-weight="bold" font-size="14.00">Legend</text>
<polygon fill="#ffffb3" stroke="transparent" points="150.5,-10 150.5,-30 170.5,-30 170.5,-10 150.5,-10"/>
<text text-anchor="start" x="174.13" y="-15.4" font-family="Times-12" font-size="14.00"> &#160;Declarations</text>
<polygon fill="#8dd3c7" stroke="transparent" points="263.5,-10 263.5,-30 283.5,-30 283.5,-10 263.5,-10"/>
<text text-anchor="start" x="287.23" y="-15.4" font-family="Times-12" font-size="14.00"> &#160;Module</text>
<polygon fill="#80b1d3" stroke="transparent" points="349.5,-10 349.5,-30 369.5,-30 369.5,-10 349.5,-10"/>
<text text-anchor="start" x="373.28" y="-15.4" font-family="Times-12" font-size="14.00"> &#160;Bootstrap</text>
<polygon fill="#fdb462" stroke="transparent" points="446.5,-10 446.5,-30 466.5,-30 466.5,-10 446.5,-10"/>
<text text-anchor="start" x="470.17" y="-15.4" font-family="Times-12" font-size="14.00"> &#160;Providers</text>
<polygon fill="#fb8072" stroke="transparent" points="542.5,-10 542.5,-30 562.5,-30 562.5,-10 542.5,-10"/>
<text text-anchor="start" x="566.23" y="-15.4" font-family="Times-12" font-size="14.00"> &#160;Exports</text>
<g id="clust1" class="cluster">
<title>cluster_CommonModule</title>
<polygon fill="none" stroke="black" stroke-dasharray="1,5" points="8,-70 8,-268 761,-268 761,-70 8,-70"/>
</g>
<g id="clust4" class="cluster">
<title>cluster_CommonModule_exports</title>
<polygon fill="none" stroke="black" points="251,-208 251,-260 662,-260 662,-208 251,-208"/>
</g>
<g id="clust3" class="cluster">
<title>cluster_CommonModule_imports</title>
<polygon fill="none" stroke="black" points="413,-78 413,-130 753,-130 753,-78 413,-78"/>
</g>
<g id="clust6" class="cluster">
<title>cluster_CommonModule_providers</title>
<polygon fill="none" stroke="black" points="16,-78 16,-130 405,-130 405,-78 16,-78"/>
</g>
<!-- AuditModule -->
<g id="node1" class="node">
<title>AuditModule</title>
<polygon fill="#8dd3c7" stroke="black" points="744.94,-122 741.94,-126 720.94,-126 717.94,-122 653.06,-122 653.06,-86 744.94,-86 744.94,-122"/>
<text text-anchor="middle" x="699" y="-99.8" font-family="Times,serif" font-size="14.00">AuditModule</text>
</g>
<!-- CommonModule -->
<g id="node4" class="node">
<title>CommonModule</title>
<polygon fill="#8dd3c7" stroke="black" points="525.67,-187 522.67,-191 501.67,-191 498.67,-187 414.33,-187 414.33,-151 525.67,-151 525.67,-187"/>
<text text-anchor="middle" x="470" y="-164.8" font-family="Times,serif" font-size="14.00">CommonModule</text>
</g>
<!-- AuditModule&#45;&gt;CommonModule -->
<g id="edge1" class="edge">
<title>AuditModule&#45;&gt;CommonModule</title>
<path fill="none" stroke="black" d="M699.59,-122.11C699.59,-141.34 699.59,-169 699.59,-169 699.59,-169 535.87,-169 535.87,-169"/>
<polygon fill="black" stroke="black" points="535.87,-165.5 525.87,-169 535.87,-172.5 535.87,-165.5"/>
</g>
<!-- ConfigModule -->
<g id="node2" class="node">
<title>ConfigModule</title>
<polygon fill="#8dd3c7" stroke="black" points="635.44,-122 632.44,-126 611.44,-126 608.44,-122 536.56,-122 536.56,-86 635.44,-86 635.44,-122"/>
<text text-anchor="middle" x="586" y="-99.8" font-family="Times,serif" font-size="14.00">ConfigModule</text>
</g>
<!-- ConfigModule&#45;&gt;CommonModule -->
<g id="edge2" class="edge">
<title>ConfigModule&#45;&gt;CommonModule</title>
<path fill="none" stroke="black" d="M550.54,-122.03C550.54,-138.4 550.54,-160 550.54,-160 550.54,-160 535.94,-160 535.94,-160"/>
<polygon fill="black" stroke="black" points="535.94,-156.5 525.94,-160 535.94,-163.5 535.94,-156.5"/>
</g>
<!-- PrismaModule -->
<g id="node3" class="node">
<title>PrismaModule</title>
<polygon fill="#8dd3c7" stroke="black" points="519.43,-122 516.43,-126 495.43,-126 492.43,-122 420.57,-122 420.57,-86 519.43,-86 519.43,-122"/>
<text text-anchor="middle" x="470" y="-99.8" font-family="Times,serif" font-size="14.00">PrismaModule</text>
</g>
<!-- PrismaModule&#45;&gt;CommonModule -->
<g id="edge3" class="edge">
<title>PrismaModule&#45;&gt;CommonModule</title>
<path fill="none" stroke="black" d="M470,-122.11C470,-122.11 470,-140.99 470,-140.99"/>
<polygon fill="black" stroke="black" points="466.5,-140.99 470,-150.99 473.5,-140.99 466.5,-140.99"/>
</g>
<!-- AuditModule  -->
<g id="node5" class="node">
<title>AuditModule </title>
<polygon fill="#fb8072" stroke="black" points="654.44,-252 559.56,-252 559.56,-216 654.44,-216 654.44,-252"/>
<text text-anchor="middle" x="607" y="-229.8" font-family="Times,serif" font-size="14.00">AuditModule </text>
</g>
<!-- CommonModule&#45;&gt;AuditModule  -->
<g id="edge4" class="edge">
<title>CommonModule&#45;&gt;AuditModule </title>
<path fill="none" stroke="black" stroke-dasharray="5,2" d="M525.87,-178C560.09,-178 597.38,-178 597.38,-178 597.38,-178 597.38,-205.97 597.38,-205.97"/>
<polygon fill="black" stroke="black" points="593.88,-205.97 597.38,-215.97 600.88,-205.97 593.88,-205.97"/>
</g>
<!-- ErrorHandlingService  -->
<g id="node6" class="node">
<title>ErrorHandlingService </title>
<polygon fill="#fb8072" stroke="black" points="541.61,-252 398.39,-252 398.39,-216 541.61,-216 541.61,-252"/>
<text text-anchor="middle" x="470" y="-229.8" font-family="Times,serif" font-size="14.00">ErrorHandlingService </text>
</g>
<!-- CommonModule&#45;&gt;ErrorHandlingService  -->
<g id="edge5" class="edge">
<title>CommonModule&#45;&gt;ErrorHandlingService </title>
<path fill="none" stroke="black" stroke-dasharray="5,2" d="M470,-187.11C470,-187.11 470,-205.99 470,-205.99"/>
<polygon fill="black" stroke="black" points="466.5,-205.99 470,-215.99 473.5,-205.99 466.5,-205.99"/>
</g>
<!-- PaginationService  -->
<g id="node7" class="node">
<title>PaginationService </title>
<polygon fill="#fb8072" stroke="black" points="380.86,-252 259.14,-252 259.14,-216 380.86,-216 380.86,-252"/>
<text text-anchor="middle" x="320" y="-229.8" font-family="Times,serif" font-size="14.00">PaginationService </text>
</g>
<!-- CommonModule&#45;&gt;PaginationService  -->
<g id="edge6" class="edge">
<title>CommonModule&#45;&gt;PaginationService </title>
<path fill="none" stroke="black" stroke-dasharray="5,2" d="M414.15,-178C371.5,-178 320,-178 320,-178 320,-178 320,-205.97 320,-205.97"/>
<polygon fill="black" stroke="black" points="316.5,-205.97 320,-215.97 323.5,-205.97 316.5,-205.97"/>
</g>
<!-- ErrorHandlingService -->
<g id="node8" class="node">
<title>ErrorHandlingService</title>
<ellipse fill="#fdb462" stroke="black" cx="301" cy="-104" rx="96.11" ry="18"/>
<text text-anchor="middle" x="301" y="-99.8" font-family="Times,serif" font-size="14.00">ErrorHandlingService</text>
</g>
<!-- ErrorHandlingService&#45;&gt;CommonModule -->
<g id="edge7" class="edge">
<title>ErrorHandlingService&#45;&gt;CommonModule</title>
<path fill="none" stroke="black" d="M388.99,-111.32C388.99,-126.5 388.99,-160 388.99,-160 388.99,-160 404.18,-160 404.18,-160"/>
<polygon fill="black" stroke="black" points="404.18,-163.5 414.18,-160 404.18,-156.5 404.18,-163.5"/>
</g>
<!-- PaginationService -->
<g id="node9" class="node">
<title>PaginationService</title>
<ellipse fill="#fdb462" stroke="black" cx="105" cy="-104" rx="81.1" ry="18"/>
<text text-anchor="middle" x="105" y="-99.8" font-family="Times,serif" font-size="14.00">PaginationService</text>
</g>
<!-- PaginationService&#45;&gt;CommonModule -->
<g id="edge8" class="edge">
<title>PaginationService&#45;&gt;CommonModule</title>
<path fill="none" stroke="black" d="M105,-122.11C105,-141.34 105,-169 105,-169 105,-169 404.17,-169 404.17,-169"/>
<polygon fill="black" stroke="black" points="404.17,-172.5 414.17,-169 404.17,-165.5 404.17,-172.5"/>
</g>
</g>
</svg>
