<?xml version="1.0" encoding="UTF-8" standalone="no"?>
<!DOCTYPE svg PUBLIC "-//W3C//DTD SVG 1.1//EN"
 "http://www.w3.org/Graphics/SVG/1.1/DTD/svg11.dtd">
<!-- Generated by graphviz version 2.47.0 (20210316.0004)
 -->
<!-- Title: dependencies Pages: 1 -->
<svg width="1642pt" height="284pt"
 viewBox="0.00 0.00 1642.00 284.00" xmlns="http://www.w3.org/2000/svg" xmlns:xlink="http://www.w3.org/1999/xlink">
<g id="graph0" class="graph" transform="scale(1 1) rotate(0) translate(4 280)">
<title>dependencies</title>
<polygon fill="white" stroke="transparent" points="-4,4 -4,-280 1638,-280 1638,4 -4,4"/>
<text text-anchor="start" x="796.01" y="-42.4" font-family="Times-12" font-weight="bold" font-size="14.00">Legend</text>
<polygon fill="#ffffb3" stroke="transparent" points="583,-10 583,-30 603,-30 603,-10 583,-10"/>
<text text-anchor="start" x="606.63" y="-15.4" font-family="Times-12" font-size="14.00"> &#160;Declarations</text>
<polygon fill="#8dd3c7" stroke="transparent" points="696,-10 696,-30 716,-30 716,-10 696,-10"/>
<text text-anchor="start" x="719.73" y="-15.4" font-family="Times-12" font-size="14.00"> &#160;Module</text>
<polygon fill="#80b1d3" stroke="transparent" points="782,-10 782,-30 802,-30 802,-10 782,-10"/>
<text text-anchor="start" x="805.78" y="-15.4" font-family="Times-12" font-size="14.00"> &#160;Bootstrap</text>
<polygon fill="#fdb462" stroke="transparent" points="879,-10 879,-30 899,-30 899,-10 879,-10"/>
<text text-anchor="start" x="902.67" y="-15.4" font-family="Times-12" font-size="14.00"> &#160;Providers</text>
<polygon fill="#fb8072" stroke="transparent" points="975,-10 975,-30 995,-30 995,-10 975,-10"/>
<text text-anchor="start" x="998.73" y="-15.4" font-family="Times-12" font-size="14.00"> &#160;Exports</text>
<g id="clust1" class="cluster">
<title>cluster_AuditModule</title>
<polygon fill="none" stroke="black" stroke-dasharray="1,5" points="8,-70 8,-268 1626,-268 1626,-70 8,-70"/>
</g>
<g id="clust3" class="cluster">
<title>cluster_AuditModule_imports</title>
<polygon fill="none" stroke="black" points="1388,-78 1388,-130 1618,-130 1618,-78 1388,-78"/>
</g>
<g id="clust4" class="cluster">
<title>cluster_AuditModule_exports</title>
<polygon fill="none" stroke="black" points="555,-208 555,-260 1245,-260 1245,-208 555,-208"/>
</g>
<g id="clust6" class="cluster">
<title>cluster_AuditModule_providers</title>
<polygon fill="none" stroke="black" points="16,-78 16,-130 1380,-130 1380,-78 16,-78"/>
</g>
<!-- ConfigModule -->
<g id="node1" class="node">
<title>ConfigModule</title>
<polygon fill="#8dd3c7" stroke="black" points="1610.44,-122 1607.44,-126 1586.44,-126 1583.44,-122 1511.56,-122 1511.56,-86 1610.44,-86 1610.44,-122"/>
<text text-anchor="middle" x="1561" y="-99.8" font-family="Times,serif" font-size="14.00">ConfigModule</text>
</g>
<!-- AuditModule -->
<g id="node3" class="node">
<title>AuditModule</title>
<polygon fill="#8dd3c7" stroke="black" points="929.94,-187 926.94,-191 905.94,-191 902.94,-187 838.06,-187 838.06,-151 929.94,-151 929.94,-187"/>
<text text-anchor="middle" x="884" y="-164.8" font-family="Times,serif" font-size="14.00">AuditModule</text>
</g>
<!-- ConfigModule&#45;&gt;AuditModule -->
<g id="edge1" class="edge">
<title>ConfigModule&#45;&gt;AuditModule</title>
<path fill="none" stroke="black" d="M1561,-122.22C1561,-142.37 1561,-172 1561,-172 1561,-172 939.74,-172 939.74,-172"/>
<polygon fill="black" stroke="black" points="939.74,-168.5 929.74,-172 939.74,-175.5 939.74,-168.5"/>
</g>
<!-- PrismaModule -->
<g id="node2" class="node">
<title>PrismaModule</title>
<polygon fill="#8dd3c7" stroke="black" points="1494.43,-122 1491.43,-126 1470.43,-126 1467.43,-122 1395.57,-122 1395.57,-86 1494.43,-86 1494.43,-122"/>
<text text-anchor="middle" x="1445" y="-99.8" font-family="Times,serif" font-size="14.00">PrismaModule</text>
</g>
<!-- PrismaModule&#45;&gt;AuditModule -->
<g id="edge2" class="edge">
<title>PrismaModule&#45;&gt;AuditModule</title>
<path fill="none" stroke="black" d="M1445,-122.22C1445,-140.83 1445,-167 1445,-167 1445,-167 939.91,-167 939.91,-167"/>
<polygon fill="black" stroke="black" points="939.91,-163.5 929.91,-167 939.91,-170.5 939.91,-163.5"/>
</g>
<!-- AuditInterceptor  -->
<g id="node4" class="node">
<title>AuditInterceptor </title>
<polygon fill="#fb8072" stroke="black" points="1237.29,-252 1124.71,-252 1124.71,-216 1237.29,-216 1237.29,-252"/>
<text text-anchor="middle" x="1181" y="-229.8" font-family="Times,serif" font-size="14.00">AuditInterceptor </text>
</g>
<!-- AuditModule&#45;&gt;AuditInterceptor  -->
<g id="edge3" class="edge">
<title>AuditModule&#45;&gt;AuditInterceptor </title>
<path fill="none" stroke="black" stroke-dasharray="5,2" d="M929.98,-177C1009.51,-177 1164.34,-177 1164.34,-177 1164.34,-177 1164.34,-205.96 1164.34,-205.96"/>
<polygon fill="black" stroke="black" points="1160.84,-205.96 1164.34,-215.96 1167.84,-205.96 1160.84,-205.96"/>
</g>
<!-- AuditLogBatchService  -->
<g id="node5" class="node">
<title>AuditLogBatchService </title>
<polygon fill="#fb8072" stroke="black" points="1106.08,-252 957.92,-252 957.92,-216 1106.08,-216 1106.08,-252"/>
<text text-anchor="middle" x="1032" y="-229.8" font-family="Times,serif" font-size="14.00">AuditLogBatchService </text>
</g>
<!-- AuditModule&#45;&gt;AuditLogBatchService  -->
<g id="edge4" class="edge">
<title>AuditModule&#45;&gt;AuditLogBatchService </title>
<path fill="none" stroke="black" stroke-dasharray="5,2" d="M929.9,-182C951.12,-182 971.69,-182 971.69,-182 971.69,-182 971.69,-205.81 971.69,-205.81"/>
<polygon fill="black" stroke="black" points="968.19,-205.81 971.69,-215.81 975.19,-205.81 968.19,-205.81"/>
</g>
<!-- AuditLogQueue  -->
<g id="node6" class="node">
<title>AuditLogQueue </title>
<polygon fill="#fb8072" stroke="black" points="939.48,-252 828.52,-252 828.52,-216 939.48,-216 939.48,-252"/>
<text text-anchor="middle" x="884" y="-229.8" font-family="Times,serif" font-size="14.00">AuditLogQueue </text>
</g>
<!-- AuditModule&#45;&gt;AuditLogQueue  -->
<g id="edge5" class="edge">
<title>AuditModule&#45;&gt;AuditLogQueue </title>
<path fill="none" stroke="black" stroke-dasharray="5,2" d="M884,-187.11C884,-187.11 884,-205.99 884,-205.99"/>
<polygon fill="black" stroke="black" points="880.5,-205.99 884,-215.99 887.5,-205.99 880.5,-205.99"/>
</g>
<!-- AuditLogService  -->
<g id="node7" class="node">
<title>AuditLogService </title>
<polygon fill="#fb8072" stroke="black" points="810.92,-252 695.08,-252 695.08,-216 810.92,-216 810.92,-252"/>
<text text-anchor="middle" x="753" y="-229.8" font-family="Times,serif" font-size="14.00">AuditLogService </text>
</g>
<!-- AuditModule&#45;&gt;AuditLogService  -->
<g id="edge6" class="edge">
<title>AuditModule&#45;&gt;AuditLogService </title>
<path fill="none" stroke="black" stroke-dasharray="5,2" d="M838.27,-182C817.14,-182 796.64,-182 796.64,-182 796.64,-182 796.64,-205.81 796.64,-205.81"/>
<polygon fill="black" stroke="black" points="793.14,-205.81 796.64,-215.81 800.14,-205.81 793.14,-205.81"/>
</g>
<!-- AuditLoggerUtil  -->
<g id="node8" class="node">
<title>AuditLoggerUtil </title>
<polygon fill="#fb8072" stroke="black" points="676.59,-252 563.41,-252 563.41,-216 676.59,-216 676.59,-252"/>
<text text-anchor="middle" x="620" y="-229.8" font-family="Times,serif" font-size="14.00">AuditLoggerUtil </text>
</g>
<!-- AuditModule&#45;&gt;AuditLoggerUtil  -->
<g id="edge7" class="edge">
<title>AuditModule&#45;&gt;AuditLoggerUtil </title>
<path fill="none" stroke="black" stroke-dasharray="5,2" d="M838.02,-177C769.1,-177 647,-177 647,-177 647,-177 647,-205.96 647,-205.96"/>
<polygon fill="black" stroke="black" points="643.5,-205.96 647,-215.96 650.5,-205.96 643.5,-205.96"/>
</g>
<!-- AuditInterceptor -->
<g id="node9" class="node">
<title>AuditInterceptor</title>
<ellipse fill="#fdb462" stroke="black" cx="1297" cy="-104" rx="75.28" ry="18"/>
<text text-anchor="middle" x="1297" y="-99.8" font-family="Times,serif" font-size="14.00">AuditInterceptor</text>
</g>
<!-- AuditInterceptor&#45;&gt;AuditModule -->
<g id="edge8" class="edge">
<title>AuditInterceptor&#45;&gt;AuditModule</title>
<path fill="none" stroke="black" d="M1229.5,-112.06C1229.5,-128 1229.5,-162 1229.5,-162 1229.5,-162 939.88,-162 939.88,-162"/>
<polygon fill="black" stroke="black" points="939.88,-158.5 929.88,-162 939.88,-165.5 939.88,-158.5"/>
</g>
<!-- AuditLogBatchService -->
<g id="node10" class="node">
<title>AuditLogBatchService</title>
<ellipse fill="#fdb462" stroke="black" cx="1104" cy="-104" rx="100.14" ry="18"/>
<text text-anchor="middle" x="1104" y="-99.8" font-family="Times,serif" font-size="14.00">AuditLogBatchService</text>
</g>
<!-- AuditLogBatchService&#45;&gt;AuditModule -->
<g id="edge9" class="edge">
<title>AuditLogBatchService&#45;&gt;AuditModule</title>
<path fill="none" stroke="black" d="M1055.11,-119.9C1055.11,-135.51 1055.11,-157 1055.11,-157 1055.11,-157 939.85,-157 939.85,-157"/>
<polygon fill="black" stroke="black" points="939.85,-153.5 929.85,-157 939.85,-160.5 939.85,-153.5"/>
</g>
<!-- AuditLogCacheService -->
<g id="node11" class="node">
<title>AuditLogCacheService</title>
<ellipse fill="#fdb462" stroke="black" cx="884" cy="-104" rx="101.85" ry="18"/>
<text text-anchor="middle" x="884" y="-99.8" font-family="Times,serif" font-size="14.00">AuditLogCacheService</text>
</g>
<!-- AuditLogCacheService&#45;&gt;AuditModule -->
<g id="edge10" class="edge">
<title>AuditLogCacheService&#45;&gt;AuditModule</title>
<path fill="none" stroke="black" d="M884,-122.11C884,-122.11 884,-140.99 884,-140.99"/>
<polygon fill="black" stroke="black" points="880.5,-140.99 884,-150.99 887.5,-140.99 880.5,-140.99"/>
</g>
<!-- AuditLogQueue -->
<g id="node12" class="node">
<title>AuditLogQueue</title>
<ellipse fill="#fdb462" stroke="black" cx="691" cy="-104" rx="73.58" ry="18"/>
<text text-anchor="middle" x="691" y="-99.8" font-family="Times,serif" font-size="14.00">AuditLogQueue</text>
</g>
<!-- AuditLogQueue&#45;&gt;AuditModule -->
<g id="edge11" class="edge">
<title>AuditLogQueue&#45;&gt;AuditModule</title>
<path fill="none" stroke="black" d="M729.92,-119.33C729.92,-134.98 729.92,-157 729.92,-157 729.92,-157 828.19,-157 828.19,-157"/>
<polygon fill="black" stroke="black" points="828.19,-160.5 838.19,-157 828.19,-153.5 828.19,-160.5"/>
</g>
<!-- AuditLogSchedulerService -->
<g id="node13" class="node">
<title>AuditLogSchedulerService</title>
<ellipse fill="#fdb462" stroke="black" cx="483" cy="-104" rx="116.31" ry="18"/>
<text text-anchor="middle" x="483" y="-99.8" font-family="Times,serif" font-size="14.00">AuditLogSchedulerService</text>
</g>
<!-- AuditLogSchedulerService&#45;&gt;AuditModule -->
<g id="edge12" class="edge">
<title>AuditLogSchedulerService&#45;&gt;AuditModule</title>
<path fill="none" stroke="black" d="M581.18,-113.84C581.18,-130.39 581.18,-162 581.18,-162 581.18,-162 828.01,-162 828.01,-162"/>
<polygon fill="black" stroke="black" points="828.01,-165.5 838.01,-162 828.01,-158.5 828.01,-165.5"/>
</g>
<!-- AuditLogService -->
<g id="node14" class="node">
<title>AuditLogService</title>
<ellipse fill="#fdb462" stroke="black" cx="271" cy="-104" rx="77.59" ry="18"/>
<text text-anchor="middle" x="271" y="-99.8" font-family="Times,serif" font-size="14.00">AuditLogService</text>
</g>
<!-- AuditLogService&#45;&gt;AuditModule -->
<g id="edge13" class="edge">
<title>AuditLogService&#45;&gt;AuditModule</title>
<path fill="none" stroke="black" d="M271,-122.22C271,-140.83 271,-167 271,-167 271,-167 827.93,-167 827.93,-167"/>
<polygon fill="black" stroke="black" points="827.93,-170.5 837.93,-167 827.93,-163.5 827.93,-170.5"/>
</g>
<!-- AuditLoggerUtil -->
<g id="node15" class="node">
<title>AuditLoggerUtil</title>
<ellipse fill="#fdb462" stroke="black" cx="100" cy="-104" rx="75.88" ry="18"/>
<text text-anchor="middle" x="100" y="-99.8" font-family="Times,serif" font-size="14.00">AuditLoggerUtil</text>
</g>
<!-- AuditLoggerUtil&#45;&gt;AuditModule -->
<g id="edge14" class="edge">
<title>AuditLoggerUtil&#45;&gt;AuditModule</title>
<path fill="none" stroke="black" d="M100,-122.22C100,-142.37 100,-172 100,-172 100,-172 828.17,-172 828.17,-172"/>
<polygon fill="black" stroke="black" points="828.17,-175.5 838.17,-172 828.17,-168.5 828.17,-175.5"/>
</g>
</g>
</svg>
