<?xml version="1.0" encoding="UTF-8" standalone="no"?>
<!DOCTYPE svg PUBLIC "-//W3C//DTD SVG 1.1//EN"
 "http://www.w3.org/Graphics/SVG/1.1/DTD/svg11.dtd">
<!-- Generated by graphviz version 2.47.0 (20210316.0004)
 -->
<!-- Title: dependencies Pages: 1 -->
<svg width="1386pt" height="284pt"
 viewBox="0.00 0.00 1386.00 284.00" xmlns="http://www.w3.org/2000/svg" xmlns:xlink="http://www.w3.org/1999/xlink">
<g id="graph0" class="graph" transform="scale(1 1) rotate(0) translate(4 280)">
<title>dependencies</title>
<polygon fill="white" stroke="transparent" points="-4,4 -4,-280 1382,-280 1382,4 -4,4"/>
<text text-anchor="start" x="668.01" y="-42.4" font-family="Times-12" font-weight="bold" font-size="14.00">Legend</text>
<polygon fill="#ffffb3" stroke="transparent" points="455,-10 455,-30 475,-30 475,-10 455,-10"/>
<text text-anchor="start" x="478.63" y="-15.4" font-family="Times-12" font-size="14.00"> &#160;Declarations</text>
<polygon fill="#8dd3c7" stroke="transparent" points="568,-10 568,-30 588,-30 588,-10 568,-10"/>
<text text-anchor="start" x="591.73" y="-15.4" font-family="Times-12" font-size="14.00"> &#160;Module</text>
<polygon fill="#80b1d3" stroke="transparent" points="654,-10 654,-30 674,-30 674,-10 654,-10"/>
<text text-anchor="start" x="677.78" y="-15.4" font-family="Times-12" font-size="14.00"> &#160;Bootstrap</text>
<polygon fill="#fdb462" stroke="transparent" points="751,-10 751,-30 771,-30 771,-10 751,-10"/>
<text text-anchor="start" x="774.67" y="-15.4" font-family="Times-12" font-size="14.00"> &#160;Providers</text>
<polygon fill="#fb8072" stroke="transparent" points="847,-10 847,-30 867,-30 867,-10 847,-10"/>
<text text-anchor="start" x="870.73" y="-15.4" font-family="Times-12" font-size="14.00"> &#160;Exports</text>
<g id="clust1" class="cluster">
<title>cluster_SeedModule</title>
<polygon fill="none" stroke="black" stroke-dasharray="1,5" points="8,-70 8,-268 1370,-268 1370,-70 8,-70"/>
</g>
<g id="clust4" class="cluster">
<title>cluster_SeedModule_exports</title>
<polygon fill="none" stroke="black" points="328,-208 328,-260 825,-260 825,-208 328,-208"/>
</g>
<g id="clust6" class="cluster">
<title>cluster_SeedModule_providers</title>
<polygon fill="none" stroke="black" points="504,-78 504,-130 1362,-130 1362,-78 504,-78"/>
</g>
<g id="clust3" class="cluster">
<title>cluster_SeedModule_imports</title>
<polygon fill="none" stroke="black" points="16,-78 16,-130 496,-130 496,-78 16,-78"/>
</g>
<!-- CommonModule -->
<g id="node1" class="node">
<title>CommonModule</title>
<polygon fill="#8dd3c7" stroke="black" points="487.67,-122 484.67,-126 463.67,-126 460.67,-122 376.33,-122 376.33,-86 487.67,-86 487.67,-122"/>
<text text-anchor="middle" x="432" y="-99.8" font-family="Times,serif" font-size="14.00">CommonModule</text>
</g>
<!-- SeedModule -->
<g id="node5" class="node">
<title>SeedModule</title>
<polygon fill="#8dd3c7" stroke="black" points="614.26,-187 611.26,-191 590.26,-191 587.26,-187 527.74,-187 527.74,-151 614.26,-151 614.26,-187"/>
<text text-anchor="middle" x="571" y="-164.8" font-family="Times,serif" font-size="14.00">SeedModule</text>
</g>
<!-- CommonModule&#45;&gt;SeedModule -->
<g id="edge1" class="edge">
<title>CommonModule&#45;&gt;SeedModule</title>
<path fill="none" stroke="black" d="M465.22,-122.24C465.22,-137.57 465.22,-157 465.22,-157 465.22,-157 517.67,-157 517.67,-157"/>
<polygon fill="black" stroke="black" points="517.67,-160.5 527.67,-157 517.67,-153.5 517.67,-160.5"/>
</g>
<!-- ConfigModule -->
<g id="node2" class="node">
<title>ConfigModule</title>
<polygon fill="#8dd3c7" stroke="black" points="358.44,-122 355.44,-126 334.44,-126 331.44,-122 259.56,-122 259.56,-86 358.44,-86 358.44,-122"/>
<text text-anchor="middle" x="309" y="-99.8" font-family="Times,serif" font-size="14.00">ConfigModule</text>
</g>
<!-- ConfigModule&#45;&gt;SeedModule -->
<g id="edge2" class="edge">
<title>ConfigModule&#45;&gt;SeedModule</title>
<path fill="none" stroke="black" d="M346.94,-122.02C346.94,-139.37 346.94,-163 346.94,-163 346.94,-163 517.53,-163 517.53,-163"/>
<polygon fill="black" stroke="black" points="517.53,-166.5 527.53,-163 517.53,-159.5 517.53,-166.5"/>
</g>
<!-- EinsatzModule -->
<g id="node3" class="node">
<title>EinsatzModule</title>
<polygon fill="#8dd3c7" stroke="black" points="241.26,-122 238.26,-126 217.26,-126 214.26,-122 140.74,-122 140.74,-86 241.26,-86 241.26,-122"/>
<text text-anchor="middle" x="191" y="-99.8" font-family="Times,serif" font-size="14.00">EinsatzModule</text>
</g>
<!-- EinsatzModule&#45;&gt;SeedModule -->
<g id="edge3" class="edge">
<title>EinsatzModule&#45;&gt;SeedModule</title>
<path fill="none" stroke="black" d="M191,-122.11C191,-141.34 191,-169 191,-169 191,-169 517.41,-169 517.41,-169"/>
<polygon fill="black" stroke="black" points="517.41,-172.5 527.41,-169 517.41,-165.5 517.41,-172.5"/>
</g>
<!-- PrismaModule -->
<g id="node4" class="node">
<title>PrismaModule</title>
<polygon fill="#8dd3c7" stroke="black" points="122.43,-122 119.43,-126 98.43,-126 95.43,-122 23.57,-122 23.57,-86 122.43,-86 122.43,-122"/>
<text text-anchor="middle" x="73" y="-99.8" font-family="Times,serif" font-size="14.00">PrismaModule</text>
</g>
<!-- PrismaModule&#45;&gt;SeedModule -->
<g id="edge4" class="edge">
<title>PrismaModule&#45;&gt;SeedModule</title>
<path fill="none" stroke="black" d="M73,-122.28C73,-143.32 73,-175 73,-175 73,-175 517.68,-175 517.68,-175"/>
<polygon fill="black" stroke="black" points="517.68,-178.5 527.68,-175 517.68,-171.5 517.68,-178.5"/>
</g>
<!-- DevSeedService  -->
<g id="node6" class="node">
<title>DevSeedService </title>
<polygon fill="#fb8072" stroke="black" points="817.01,-252 704.99,-252 704.99,-216 817.01,-216 817.01,-252"/>
<text text-anchor="middle" x="761" y="-229.8" font-family="Times,serif" font-size="14.00">DevSeedService </text>
</g>
<!-- SeedModule&#45;&gt;DevSeedService  -->
<g id="edge5" class="edge">
<title>SeedModule&#45;&gt;DevSeedService </title>
<path fill="none" stroke="black" stroke-dasharray="5,2" d="M614.59,-181C670.68,-181 761,-181 761,-181 761,-181 761,-205.76 761,-205.76"/>
<polygon fill="black" stroke="black" points="757.5,-205.76 761,-215.76 764.5,-205.76 757.5,-205.76"/>
</g>
<!-- ProfileService  -->
<g id="node7" class="node">
<title>ProfileService </title>
<polygon fill="#fb8072" stroke="black" points="686.58,-252 587.42,-252 587.42,-216 686.58,-216 686.58,-252"/>
<text text-anchor="middle" x="637" y="-229.8" font-family="Times,serif" font-size="14.00">ProfileService </text>
</g>
<!-- SeedModule&#45;&gt;ProfileService  -->
<g id="edge6" class="edge">
<title>SeedModule&#45;&gt;ProfileService </title>
<path fill="none" stroke="black" stroke-dasharray="5,2" d="M600.8,-187.11C600.8,-187.11 600.8,-205.99 600.8,-205.99"/>
<polygon fill="black" stroke="black" points="597.3,-205.99 600.8,-215.99 604.3,-205.99 597.3,-205.99"/>
</g>
<!-- SeedImportService  -->
<g id="node8" class="node">
<title>SeedImportService </title>
<polygon fill="#fb8072" stroke="black" points="569.29,-252 442.71,-252 442.71,-216 569.29,-216 569.29,-252"/>
<text text-anchor="middle" x="506" y="-229.8" font-family="Times,serif" font-size="14.00">SeedImportService </text>
</g>
<!-- SeedModule&#45;&gt;SeedImportService  -->
<g id="edge7" class="edge">
<title>SeedModule&#45;&gt;SeedImportService </title>
<path fill="none" stroke="black" stroke-dasharray="5,2" d="M548.51,-187.11C548.51,-187.11 548.51,-205.99 548.51,-205.99"/>
<polygon fill="black" stroke="black" points="545.01,-205.99 548.51,-215.99 552.01,-205.99 545.01,-205.99"/>
</g>
<!-- SeedService  -->
<g id="node9" class="node">
<title>SeedService </title>
<polygon fill="#fb8072" stroke="black" points="424.19,-252 335.81,-252 335.81,-216 424.19,-216 424.19,-252"/>
<text text-anchor="middle" x="380" y="-229.8" font-family="Times,serif" font-size="14.00">SeedService </text>
</g>
<!-- SeedModule&#45;&gt;SeedService  -->
<g id="edge8" class="edge">
<title>SeedModule&#45;&gt;SeedService </title>
<path fill="none" stroke="black" stroke-dasharray="5,2" d="M527.47,-181C476.88,-181 400.26,-181 400.26,-181 400.26,-181 400.26,-205.76 400.26,-205.76"/>
<polygon fill="black" stroke="black" points="396.76,-205.76 400.26,-215.76 403.76,-205.76 396.76,-205.76"/>
</g>
<!-- DatabaseCheckService -->
<g id="node10" class="node">
<title>DatabaseCheckService</title>
<ellipse fill="#fdb462" stroke="black" cx="1254" cy="-104" rx="100.1" ry="18"/>
<text text-anchor="middle" x="1254" y="-99.8" font-family="Times,serif" font-size="14.00">DatabaseCheckService</text>
</g>
<!-- DatabaseCheckService&#45;&gt;SeedModule -->
<g id="edge9" class="edge">
<title>DatabaseCheckService&#45;&gt;SeedModule</title>
<path fill="none" stroke="black" d="M1254,-122.28C1254,-143.32 1254,-175 1254,-175 1254,-175 624.5,-175 624.5,-175"/>
<polygon fill="black" stroke="black" points="624.5,-171.5 614.5,-175 624.5,-178.5 624.5,-171.5"/>
</g>
<!-- DevSeedService -->
<g id="node11" class="node">
<title>DevSeedService</title>
<ellipse fill="#fdb462" stroke="black" cx="1061" cy="-104" rx="74.7" ry="18"/>
<text text-anchor="middle" x="1061" y="-99.8" font-family="Times,serif" font-size="14.00">DevSeedService</text>
</g>
<!-- DevSeedService&#45;&gt;SeedModule -->
<g id="edge10" class="edge">
<title>DevSeedService&#45;&gt;SeedModule</title>
<path fill="none" stroke="black" d="M1061,-122.11C1061,-141.34 1061,-169 1061,-169 1061,-169 624.48,-169 624.48,-169"/>
<polygon fill="black" stroke="black" points="624.48,-165.5 614.48,-169 624.48,-172.5 624.48,-165.5"/>
</g>
<!-- ProfileService -->
<g id="node12" class="node">
<title>ProfileService</title>
<ellipse fill="#fdb462" stroke="black" cx="902" cy="-104" rx="66.05" ry="18"/>
<text text-anchor="middle" x="902" y="-99.8" font-family="Times,serif" font-size="14.00">ProfileService</text>
</g>
<!-- ProfileService&#45;&gt;SeedModule -->
<g id="edge11" class="edge">
<title>ProfileService&#45;&gt;SeedModule</title>
<path fill="none" stroke="black" d="M902,-122.02C902,-139.37 902,-163 902,-163 902,-163 624.27,-163 624.27,-163"/>
<polygon fill="black" stroke="black" points="624.27,-159.5 614.27,-163 624.27,-166.5 624.27,-159.5"/>
</g>
<!-- SeedImportService -->
<g id="node13" class="node">
<title>SeedImportService</title>
<ellipse fill="#fdb462" stroke="black" cx="733" cy="-104" rx="85.09" ry="18"/>
<text text-anchor="middle" x="733" y="-99.8" font-family="Times,serif" font-size="14.00">SeedImportService</text>
</g>
<!-- SeedImportService&#45;&gt;SeedModule -->
<g id="edge12" class="edge">
<title>SeedImportService&#45;&gt;SeedModule</title>
<path fill="none" stroke="black" d="M667.37,-115.5C667.37,-131.09 667.37,-157 667.37,-157 667.37,-157 624.39,-157 624.39,-157"/>
<polygon fill="black" stroke="black" points="624.39,-153.5 614.39,-157 624.39,-160.5 624.39,-153.5"/>
</g>
<!-- SeedService -->
<g id="node14" class="node">
<title>SeedService</title>
<ellipse fill="#fdb462" stroke="black" cx="571" cy="-104" rx="58.53" ry="18"/>
<text text-anchor="middle" x="571" y="-99.8" font-family="Times,serif" font-size="14.00">SeedService</text>
</g>
<!-- SeedService&#45;&gt;SeedModule -->
<g id="edge13" class="edge">
<title>SeedService&#45;&gt;SeedModule</title>
<path fill="none" stroke="black" d="M571,-122.11C571,-122.11 571,-140.99 571,-140.99"/>
<polygon fill="black" stroke="black" points="567.5,-140.99 571,-150.99 574.5,-140.99 567.5,-140.99"/>
</g>
</g>
</svg>
