<?xml version="1.0" encoding="UTF-8" standalone="no"?>
<!DOCTYPE svg PUBLIC "-//W3C//DTD SVG 1.1//EN"
 "http://www.w3.org/Graphics/SVG/1.1/DTD/svg11.dtd">
<!-- Generated by graphviz version 2.47.0 (20210316.0004)
 -->
<!-- Title: dependencies Pages: 1 -->
<svg width="1138pt" height="211pt"
 viewBox="0.00 0.00 1138.00 211.00" xmlns="http://www.w3.org/2000/svg" xmlns:xlink="http://www.w3.org/1999/xlink">
<g id="graph0" class="graph" transform="scale(1 1) rotate(0) translate(4 207)">
<title>dependencies</title>
<polygon fill="white" stroke="transparent" points="-4,4 -4,-207 1134,-207 1134,4 -4,4"/>
<text text-anchor="start" x="544.01" y="-42.4" font-family="Times-12" font-weight="bold" font-size="14.00">Legend</text>
<polygon fill="#ffffb3" stroke="transparent" points="331,-10 331,-30 351,-30 351,-10 331,-10"/>
<text text-anchor="start" x="354.63" y="-15.4" font-family="Times-12" font-size="14.00"> &#160;Declarations</text>
<polygon fill="#8dd3c7" stroke="transparent" points="444,-10 444,-30 464,-30 464,-10 444,-10"/>
<text text-anchor="start" x="467.73" y="-15.4" font-family="Times-12" font-size="14.00"> &#160;Module</text>
<polygon fill="#80b1d3" stroke="transparent" points="530,-10 530,-30 550,-30 550,-10 530,-10"/>
<text text-anchor="start" x="553.78" y="-15.4" font-family="Times-12" font-size="14.00"> &#160;Bootstrap</text>
<polygon fill="#fdb462" stroke="transparent" points="627,-10 627,-30 647,-30 647,-10 627,-10"/>
<text text-anchor="start" x="650.67" y="-15.4" font-family="Times-12" font-size="14.00"> &#160;Providers</text>
<polygon fill="#fb8072" stroke="transparent" points="723,-10 723,-30 743,-30 743,-10 723,-10"/>
<text text-anchor="start" x="746.73" y="-15.4" font-family="Times-12" font-size="14.00"> &#160;Exports</text>
<g id="clust1" class="cluster">
<title>cluster_CliModule</title>
<polygon fill="none" stroke="black" stroke-dasharray="1,5" points="8,-70 8,-195 1122,-195 1122,-70 8,-70"/>
</g>
<g id="clust6" class="cluster">
<title>cluster_CliModule_providers</title>
<polygon fill="none" stroke="black" points="479,-78 479,-130 1114,-130 1114,-78 479,-78"/>
</g>
<g id="clust3" class="cluster">
<title>cluster_CliModule_imports</title>
<polygon fill="none" stroke="black" points="16,-78 16,-130 471,-130 471,-78 16,-78"/>
</g>
<!-- ConfigModule -->
<g id="node1" class="node">
<title>ConfigModule</title>
<polygon fill="#8dd3c7" stroke="black" points="463.44,-122 460.44,-126 439.44,-126 436.44,-122 364.56,-122 364.56,-86 463.44,-86 463.44,-122"/>
<text text-anchor="middle" x="414" y="-99.8" font-family="Times,serif" font-size="14.00">ConfigModule</text>
</g>
<!-- CliModule -->
<g id="node5" class="node">
<title>CliModule</title>
<polygon fill="#8dd3c7" stroke="black" points="452.17,-187 449.17,-191 428.17,-191 425.17,-187 375.83,-187 375.83,-151 452.17,-151 452.17,-187"/>
<text text-anchor="middle" x="414" y="-164.8" font-family="Times,serif" font-size="14.00">CliModule</text>
</g>
<!-- ConfigModule&#45;&gt;CliModule -->
<g id="edge1" class="edge">
<title>ConfigModule&#45;&gt;CliModule</title>
<path fill="none" stroke="black" d="M414,-122.11C414,-122.11 414,-140.99 414,-140.99"/>
<polygon fill="black" stroke="black" points="410.5,-140.99 414,-150.99 417.5,-140.99 410.5,-140.99"/>
</g>
<!-- EinsatzModule -->
<g id="node2" class="node">
<title>EinsatzModule</title>
<polygon fill="#8dd3c7" stroke="black" points="346.26,-122 343.26,-126 322.26,-126 319.26,-122 245.74,-122 245.74,-86 346.26,-86 346.26,-122"/>
<text text-anchor="middle" x="296" y="-99.8" font-family="Times,serif" font-size="14.00">EinsatzModule</text>
</g>
<!-- EinsatzModule&#45;&gt;CliModule -->
<g id="edge2" class="edge">
<title>EinsatzModule&#45;&gt;CliModule</title>
<path fill="none" stroke="black" d="M296,-122.03C296,-138.4 296,-160 296,-160 296,-160 365.69,-160 365.69,-160"/>
<polygon fill="black" stroke="black" points="365.69,-163.5 375.69,-160 365.69,-156.5 365.69,-163.5"/>
</g>
<!-- PrismaModule -->
<g id="node3" class="node">
<title>PrismaModule</title>
<polygon fill="#8dd3c7" stroke="black" points="227.43,-122 224.43,-126 203.43,-126 200.43,-122 128.57,-122 128.57,-86 227.43,-86 227.43,-122"/>
<text text-anchor="middle" x="178" y="-99.8" font-family="Times,serif" font-size="14.00">PrismaModule</text>
</g>
<!-- PrismaModule&#45;&gt;CliModule -->
<g id="edge3" class="edge">
<title>PrismaModule&#45;&gt;CliModule</title>
<path fill="none" stroke="black" d="M178,-122.11C178,-141.34 178,-169 178,-169 178,-169 365.82,-169 365.82,-169"/>
<polygon fill="black" stroke="black" points="365.82,-172.5 375.82,-169 365.82,-165.5 365.82,-172.5"/>
</g>
<!-- SeedModule -->
<g id="node4" class="node">
<title>SeedModule</title>
<polygon fill="#8dd3c7" stroke="black" points="110.26,-122 107.26,-126 86.26,-126 83.26,-122 23.74,-122 23.74,-86 110.26,-86 110.26,-122"/>
<text text-anchor="middle" x="67" y="-99.8" font-family="Times,serif" font-size="14.00">SeedModule</text>
</g>
<!-- SeedModule&#45;&gt;CliModule -->
<g id="edge4" class="edge">
<title>SeedModule&#45;&gt;CliModule</title>
<path fill="none" stroke="black" d="M67,-122.29C67,-144.21 67,-178 67,-178 67,-178 365.54,-178 365.54,-178"/>
<polygon fill="black" stroke="black" points="365.54,-181.5 375.54,-178 365.54,-174.5 365.54,-181.5"/>
</g>
<!-- SeedAdminCommand -->
<g id="node6" class="node">
<title>SeedAdminCommand</title>
<ellipse fill="#fdb462" stroke="black" cx="1009" cy="-104" rx="96.74" ry="18"/>
<text text-anchor="middle" x="1009" y="-99.8" font-family="Times,serif" font-size="14.00">SeedAdminCommand</text>
</g>
<!-- SeedAdminCommand&#45;&gt;CliModule -->
<g id="edge5" class="edge">
<title>SeedAdminCommand&#45;&gt;CliModule</title>
<path fill="none" stroke="black" d="M1009,-122.29C1009,-144.21 1009,-178 1009,-178 1009,-178 462.58,-178 462.58,-178"/>
<polygon fill="black" stroke="black" points="462.58,-174.5 452.58,-178 462.58,-181.5 462.58,-174.5"/>
</g>
<!-- SeedEinsatzCommand -->
<g id="node7" class="node">
<title>SeedEinsatzCommand</title>
<ellipse fill="#fdb462" stroke="black" cx="796" cy="-104" rx="98.44" ry="18"/>
<text text-anchor="middle" x="796" y="-99.8" font-family="Times,serif" font-size="14.00">SeedEinsatzCommand</text>
</g>
<!-- SeedEinsatzCommand&#45;&gt;CliModule -->
<g id="edge6" class="edge">
<title>SeedEinsatzCommand&#45;&gt;CliModule</title>
<path fill="none" stroke="black" d="M796,-122.11C796,-141.34 796,-169 796,-169 796,-169 462.38,-169 462.38,-169"/>
<polygon fill="black" stroke="black" points="462.38,-165.5 452.38,-169 462.38,-172.5 462.38,-165.5"/>
</g>
<!-- SeedImportCommand -->
<g id="node8" class="node">
<title>SeedImportCommand</title>
<ellipse fill="#fdb462" stroke="black" cx="583" cy="-104" rx="96.15" ry="18"/>
<text text-anchor="middle" x="583" y="-99.8" font-family="Times,serif" font-size="14.00">SeedImportCommand</text>
</g>
<!-- SeedImportCommand&#45;&gt;CliModule -->
<g id="edge7" class="edge">
<title>SeedImportCommand&#45;&gt;CliModule</title>
<path fill="none" stroke="black" d="M583,-122.03C583,-138.4 583,-160 583,-160 583,-160 462.35,-160 462.35,-160"/>
<polygon fill="black" stroke="black" points="462.35,-156.5 452.35,-160 462.35,-163.5 462.35,-156.5"/>
</g>
</g>
</svg>
