<?xml version="1.0" encoding="UTF-8" standalone="no"?>
<!DOCTYPE svg PUBLIC "-//W3C//DTD SVG 1.1//EN"
 "http://www.w3.org/Graphics/SVG/1.1/DTD/svg11.dtd">
<!-- Generated by graphviz version 2.47.0 (20210316.0004)
 -->
<!-- Title: dependencies Pages: 1 -->
<svg width="1318pt" height="211pt"
 viewBox="0.00 0.00 1318.00 211.00" xmlns="http://www.w3.org/2000/svg" xmlns:xlink="http://www.w3.org/1999/xlink">
<g id="graph0" class="graph" transform="scale(1 1) rotate(0) translate(4 207)">
<title>dependencies</title>
<polygon fill="white" stroke="transparent" points="-4,4 -4,-207 1314,-207 1314,4 -4,4"/>
<text text-anchor="start" x="634.01" y="-42.4" font-family="Times-12" font-weight="bold" font-size="14.00">Legend</text>
<polygon fill="#ffffb3" stroke="transparent" points="421,-10 421,-30 441,-30 441,-10 421,-10"/>
<text text-anchor="start" x="444.63" y="-15.4" font-family="Times-12" font-size="14.00"> &#160;Declarations</text>
<polygon fill="#8dd3c7" stroke="transparent" points="534,-10 534,-30 554,-30 554,-10 534,-10"/>
<text text-anchor="start" x="557.73" y="-15.4" font-family="Times-12" font-size="14.00"> &#160;Module</text>
<polygon fill="#80b1d3" stroke="transparent" points="620,-10 620,-30 640,-30 640,-10 620,-10"/>
<text text-anchor="start" x="643.78" y="-15.4" font-family="Times-12" font-size="14.00"> &#160;Bootstrap</text>
<polygon fill="#fdb462" stroke="transparent" points="717,-10 717,-30 737,-30 737,-10 717,-10"/>
<text text-anchor="start" x="740.67" y="-15.4" font-family="Times-12" font-size="14.00"> &#160;Providers</text>
<polygon fill="#fb8072" stroke="transparent" points="813,-10 813,-30 833,-30 833,-10 813,-10"/>
<text text-anchor="start" x="836.73" y="-15.4" font-family="Times-12" font-size="14.00"> &#160;Exports</text>
<g id="clust1" class="cluster">
<title>cluster_AppModule</title>
<polygon fill="none" stroke="black" stroke-dasharray="1,5" points="8,-70 8,-195 1302,-195 1302,-70 8,-70"/>
</g>
<g id="clust3" class="cluster">
<title>cluster_AppModule_imports</title>
<polygon fill="none" stroke="black" points="16,-78 16,-130 1294,-130 1294,-78 16,-78"/>
</g>
<!-- AuditModule -->
<g id="node1" class="node">
<title>AuditModule</title>
<polygon fill="#8dd3c7" stroke="black" points="1285.94,-122 1282.94,-126 1261.94,-126 1258.94,-122 1194.06,-122 1194.06,-86 1285.94,-86 1285.94,-122"/>
<text text-anchor="middle" x="1240" y="-99.8" font-family="Times,serif" font-size="14.00">AuditModule</text>
</g>
<!-- AppModule -->
<g id="node12" class="node">
<title>AppModule</title>
<polygon fill="#8dd3c7" stroke="black" points="707.66,-187 704.66,-191 683.66,-191 680.66,-187 624.34,-187 624.34,-151 707.66,-151 707.66,-187"/>
<text text-anchor="middle" x="666" y="-164.8" font-family="Times,serif" font-size="14.00">AppModule</text>
</g>
<!-- AuditModule&#45;&gt;AppModule -->
<g id="edge1" class="edge">
<title>AuditModule&#45;&gt;AppModule</title>
<path fill="none" stroke="black" d="M1240,-122.09C1240,-145.13 1240,-182 1240,-182 1240,-182 717.74,-182 717.74,-182"/>
<polygon fill="black" stroke="black" points="717.74,-178.5 707.74,-182 717.74,-185.5 717.74,-178.5"/>
</g>
<!-- AuthModule -->
<g id="node2" class="node">
<title>AuthModule</title>
<polygon fill="#8dd3c7" stroke="black" points="1176.55,-122 1173.55,-126 1152.55,-126 1149.55,-122 1089.45,-122 1089.45,-86 1176.55,-86 1176.55,-122"/>
<text text-anchor="middle" x="1133" y="-99.8" font-family="Times,serif" font-size="14.00">AuthModule</text>
</g>
<!-- AuthModule&#45;&gt;AppModule -->
<g id="edge2" class="edge">
<title>AuthModule&#45;&gt;AppModule</title>
<path fill="none" stroke="black" d="M1133,-122.28C1133,-143.32 1133,-175 1133,-175 1133,-175 717.85,-175 717.85,-175"/>
<polygon fill="black" stroke="black" points="717.85,-171.5 707.85,-175 717.85,-178.5 717.85,-171.5"/>
</g>
<!-- CommonModule -->
<g id="node3" class="node">
<title>CommonModule</title>
<polygon fill="#8dd3c7" stroke="black" points="1070.67,-122 1067.67,-126 1046.67,-126 1043.67,-122 959.33,-122 959.33,-86 1070.67,-86 1070.67,-122"/>
<text text-anchor="middle" x="1015" y="-99.8" font-family="Times,serif" font-size="14.00">CommonModule</text>
</g>
<!-- CommonModule&#45;&gt;AppModule -->
<g id="edge3" class="edge">
<title>CommonModule&#45;&gt;AppModule</title>
<path fill="none" stroke="black" d="M1015,-122.11C1015,-141.34 1015,-169 1015,-169 1015,-169 717.75,-169 717.75,-169"/>
<polygon fill="black" stroke="black" points="717.75,-165.5 707.75,-169 717.75,-172.5 717.75,-165.5"/>
</g>
<!-- ConfigModule -->
<g id="node4" class="node">
<title>ConfigModule</title>
<polygon fill="#8dd3c7" stroke="black" points="941.44,-122 938.44,-126 917.44,-126 914.44,-122 842.56,-122 842.56,-86 941.44,-86 941.44,-122"/>
<text text-anchor="middle" x="892" y="-99.8" font-family="Times,serif" font-size="14.00">ConfigModule</text>
</g>
<!-- ConfigModule&#45;&gt;AppModule -->
<g id="edge4" class="edge">
<title>ConfigModule&#45;&gt;AppModule</title>
<path fill="none" stroke="black" d="M892,-122.02C892,-139.37 892,-163 892,-163 892,-163 717.72,-163 717.72,-163"/>
<polygon fill="black" stroke="black" points="717.72,-159.5 707.72,-163 717.72,-166.5 717.72,-159.5"/>
</g>
<!-- EinsatzModule -->
<g id="node5" class="node">
<title>EinsatzModule</title>
<polygon fill="#8dd3c7" stroke="black" points="824.26,-122 821.26,-126 800.26,-126 797.26,-122 723.74,-122 723.74,-86 824.26,-86 824.26,-122"/>
<text text-anchor="middle" x="774" y="-99.8" font-family="Times,serif" font-size="14.00">EinsatzModule</text>
</g>
<!-- EinsatzModule&#45;&gt;AppModule -->
<g id="edge5" class="edge">
<title>EinsatzModule&#45;&gt;AppModule</title>
<path fill="none" stroke="black" d="M774,-122.24C774,-137.57 774,-157 774,-157 774,-157 717.76,-157 717.76,-157"/>
<polygon fill="black" stroke="black" points="717.76,-153.5 707.76,-157 717.76,-160.5 717.76,-153.5"/>
</g>
<!-- EtbModule -->
<g id="node6" class="node">
<title>EtbModule</title>
<polygon fill="#8dd3c7" stroke="black" points="705.49,-122 702.49,-126 681.49,-126 678.49,-122 626.51,-122 626.51,-86 705.49,-86 705.49,-122"/>
<text text-anchor="middle" x="666" y="-99.8" font-family="Times,serif" font-size="14.00">EtbModule</text>
</g>
<!-- EtbModule&#45;&gt;AppModule -->
<g id="edge6" class="edge">
<title>EtbModule&#45;&gt;AppModule</title>
<path fill="none" stroke="black" d="M666,-122.11C666,-122.11 666,-140.99 666,-140.99"/>
<polygon fill="black" stroke="black" points="662.5,-140.99 666,-150.99 669.5,-140.99 662.5,-140.99"/>
</g>
<!-- HealthModule -->
<g id="node7" class="node">
<title>HealthModule</title>
<polygon fill="#8dd3c7" stroke="black" points="608.37,-122 605.37,-126 584.37,-126 581.37,-122 511.63,-122 511.63,-86 608.37,-86 608.37,-122"/>
<text text-anchor="middle" x="560" y="-99.8" font-family="Times,serif" font-size="14.00">HealthModule</text>
</g>
<!-- HealthModule&#45;&gt;AppModule -->
<g id="edge7" class="edge">
<title>HealthModule&#45;&gt;AppModule</title>
<path fill="none" stroke="black" d="M560,-122.24C560,-137.57 560,-157 560,-157 560,-157 614.11,-157 614.11,-157"/>
<polygon fill="black" stroke="black" points="614.11,-160.5 624.11,-157 614.11,-153.5 614.11,-160.5"/>
</g>
<!-- NotificationModule -->
<g id="node8" class="node">
<title>NotificationModule</title>
<polygon fill="#8dd3c7" stroke="black" points="493.7,-122 490.7,-126 469.7,-126 466.7,-122 366.3,-122 366.3,-86 493.7,-86 493.7,-122"/>
<text text-anchor="middle" x="430" y="-99.8" font-family="Times,serif" font-size="14.00">NotificationModule</text>
</g>
<!-- NotificationModule&#45;&gt;AppModule -->
<g id="edge8" class="edge">
<title>NotificationModule&#45;&gt;AppModule</title>
<path fill="none" stroke="black" d="M430,-122.02C430,-139.37 430,-163 430,-163 430,-163 614.08,-163 614.08,-163"/>
<polygon fill="black" stroke="black" points="614.08,-166.5 624.08,-163 614.08,-159.5 614.08,-166.5"/>
</g>
<!-- PrismaModule -->
<g id="node9" class="node">
<title>PrismaModule</title>
<polygon fill="#8dd3c7" stroke="black" points="348.43,-122 345.43,-126 324.43,-126 321.43,-122 249.57,-122 249.57,-86 348.43,-86 348.43,-122"/>
<text text-anchor="middle" x="299" y="-99.8" font-family="Times,serif" font-size="14.00">PrismaModule</text>
</g>
<!-- PrismaModule&#45;&gt;AppModule -->
<g id="edge9" class="edge">
<title>PrismaModule&#45;&gt;AppModule</title>
<path fill="none" stroke="black" d="M299,-122.11C299,-141.34 299,-169 299,-169 299,-169 614.26,-169 614.26,-169"/>
<polygon fill="black" stroke="black" points="614.26,-172.5 624.26,-169 614.26,-165.5 614.26,-172.5"/>
</g>
<!-- SeedModule -->
<g id="node10" class="node">
<title>SeedModule</title>
<polygon fill="#8dd3c7" stroke="black" points="231.26,-122 228.26,-126 207.26,-126 204.26,-122 144.74,-122 144.74,-86 231.26,-86 231.26,-122"/>
<text text-anchor="middle" x="188" y="-99.8" font-family="Times,serif" font-size="14.00">SeedModule</text>
</g>
<!-- SeedModule&#45;&gt;AppModule -->
<g id="edge10" class="edge">
<title>SeedModule&#45;&gt;AppModule</title>
<path fill="none" stroke="black" d="M188,-122.28C188,-143.32 188,-175 188,-175 188,-175 614,-175 614,-175"/>
<polygon fill="black" stroke="black" points="614,-178.5 624,-175 614,-171.5 614,-178.5"/>
</g>
<!-- SessionModule -->
<g id="node11" class="node">
<title>SessionModule</title>
<polygon fill="#8dd3c7" stroke="black" points="126.33,-122 123.33,-126 102.33,-126 99.33,-122 23.67,-122 23.67,-86 126.33,-86 126.33,-122"/>
<text text-anchor="middle" x="75" y="-99.8" font-family="Times,serif" font-size="14.00">SessionModule</text>
</g>
<!-- SessionModule&#45;&gt;AppModule -->
<g id="edge11" class="edge">
<title>SessionModule&#45;&gt;AppModule</title>
<path fill="none" stroke="black" d="M75,-122.09C75,-145.13 75,-182 75,-182 75,-182 613.97,-182 613.97,-182"/>
<polygon fill="black" stroke="black" points="613.97,-185.5 623.97,-182 613.97,-178.5 613.97,-185.5"/>
</g>
</g>
</svg>
